<?xml version="1.0" standalone="yes"?>
<svg xmlns="http://www.w3.org/2000/svg" width="617" height="389">
<path style="fill:#61605b; stroke:none;" d="M0 0L0 389L617 389L617 0L0 0z"/>
<path style="fill:#bdc426; stroke:none;" d="M218 70C219.785 75.6876 222.391 80.8217 229 80L226 63C218.288 61.464 216.816 51.4754 214.308 45.0009C213.3 42.3988 211.727 37.1779 208.04 37.6282C204.587 38.0499 203.042 43.3929 201.748 46.0001C197.036 55.4946 191.273 63.8127 186.215 72.6161C184.971 74.7798 185.487 80.2442 187.709 81.7491C190.878 83.8961 193.561 78.2226 195.447 76.6826C201.024 72.1279 211.202 71.8314 218 70z"/>
<path style="fill:#bbc620; stroke:none;" d="M267 67L269 67C272.514 81.4525 280.229 71.6557 288 66C293.362 82.2851 313.307 83.1338 325 73C328.082 80.8675 334.23 77.91 341 78.8787C349.209 80.0533 355.084 77.6284 363 77.4088C372.97 77.1323 378.561 80.5627 389 77C393.717 83.24 404.29 69.018 409 66C410.319 71.1349 411.493 77.9556 418.004 78.5572C420.84 78.8192 433.471 75.5919 432.067 71.325C430.565 66.7605 419.83 72.1991 417 73C413.904 57.1903 405.559 59.0164 395 69C394.901 57.4771 388.514 61.188 389 71L371 73C375.915 70.6645 381.778 68.3651 384.047 62.9721C386.081 58.1355 384.393 51.3911 377.999 52.5679C365.055 54.9503 365.556 78.8218 348.143 73.5772C337.277 70.3044 366.833 59.7026 354.895 57.5575C343.631 55.5337 340.532 71.6585 331 73C330.688 59.1657 318.559 70.1992 313 75C314.987 70.2132 318.389 65.6507 323.001 63.0392C325.221 61.7816 331.156 62.4414 332.067 59.7235C333.795 54.5665 324.262 55.4819 322 56.4837C312.176 60.8339 307.915 69.9952 297 73C292.385 56.6713 286.982 59.3486 275 68C271.891 54.8049 262.385 63.8195 257 70C257 68.3228 257.037 66.6375 256.985 64.9608C256.508 49.6054 250.322 69.4781 248.588 70.8297C245.439 73.2834 240.755 72.9779 237 73C243.089 65.7043 248.178 55.8684 246.758 46.0009C244.701 31.6934 232.965 42.4469 230.087 50C227.363 57.147 225.557 70.6003 231.462 76.6471C235.895 81.1874 241.498 79.5314 246.973 78.861C249.913 78.5009 252.222 80.4232 254.99 80.218C259.87 79.856 264.913 70.8332 267 67z"/>
<path style="fill:#bbc725; stroke:none;" d="M375 49C377.121 48.741 379.017 48.427 381.012 47.6022C396.569 41.1712 377.553 36.4962 375 49z"/>
<path style="fill:#61605e; stroke:none;" d="M234 66C239.522 60.9469 240.897 53.2391 241 46C233.676 50.1987 234.001 58.4822 234 66z"/>
<path style="fill:#616159; stroke:none;" d="M208 47L199 68L215 65L208 47z"/>
<path style="fill:#64624b; stroke:none;" d="M374 64L380 58L374 64z"/>
<path style="fill:#92934d; stroke:none;" d="M257 60L257 70L258 70L257 60z"/>
<path style="fill:#ffffff; stroke:none;" d="M135 129.699C118.226 134.434 119 150.962 119 165C119 187.265 109.919 233.069 143 232.999C146.363 232.992 149.744 232.972 153 232.018C167.928 227.642 167 212.523 167 200C167 183.237 171.505 158.877 166.079 143C161.886 130.729 146.575 126.432 135 129.699z"/>
<path style="fill:#b4b3ae; stroke:none;" d="M242 129L242 130L245 130L242 129z"/>
<path style="fill:#ffffff; stroke:none;" d="M274 194L259 194C259 199.894 260.588 208.579 257.588 213.871C253.362 221.325 245.005 218.041 242.73 210.997C238.513 197.941 242 178.701 242 165C242 160.513 241.332 155.332 242.73 151.003C245.023 143.905 252.615 141.221 257.155 148.074C260.065 152.466 259 158.986 259 164L274 164C274 155.864 275.471 146.225 270.939 139.003C262.713 125.898 239.226 125.099 230.425 138.063C224.966 146.103 227 157.753 227 167C227 182.525 221.666 210.441 230.078 223.989C237.631 236.153 261.712 237.006 269.811 224.937C275.655 216.229 274 203.929 274 194M524 129.702C507.25 134.507 508 150.964 508 165C508 187.211 499.047 233.069 532 232.999C535.363 232.992 538.744 232.972 542 232.018C556.07 227.894 557 213.201 557 201C557 184.013 560.954 161.262 555.909 145C551.822 131.823 536.902 126.001 524 129.702z"/>
<path style="fill:#adabac; stroke:none;" d="M538.667 129.333L539.333 129.667L538.667 129.333z"/>
<path style="fill:#9c9b97; stroke:none;" d="M60 130L60 232L61 232L61 162L60 130z"/>
<path style="fill:#ffffff; stroke:none;" d="M61 130L61 232C73.5868 232 93.6193 235.828 103.622 226.422C108.991 221.372 109.875 212.984 109.99 206C110.241 190.675 110 175.327 110 160C110 151.033 110.209 141.882 102.871 135.396C92.702 126.407 73.5378 130 61 130M178 130L178 232L220 232L220 218L194 218L194 130L178 130z"/>
<path style="fill:#888984; stroke:none;" d="M194 130L194 218L221 218L221 217L195 217L195 158L194 130z"/>
<path style="fill:#ffffff; stroke:none;" d="M284 130L284 232L328 232L328 218L300 218L300 188L322 188L322 173L300 173L300 144L328 144L328 130L284 130z"/>
<path style="fill:#969591; stroke:none;" d="M356 130L356 135L357 135L356 130z"/>
<path style="fill:#ffffff; stroke:none;" d="M357 130L368.082 206L372.845 230.85L396 232L411 130L397 130L385 212L384 212L373 130L357 130z"/>
<path style="fill:#b8b9b4; stroke:none;" d="M411 130L411 133L412 133L411 130z"/>
<path style="fill:#ffffff; stroke:none;" d="M419 130L419 232L435 232L435 130L419 130z"/>
<path style="fill:#898a85; stroke:none;" d="M435 130L435 232L436 232L436 162L435 130M446 130L446 232L447 232L447 162L446 130z"/>
<path style="fill:#ffffff; stroke:none;" d="M447 130L447 232L461 232L461 160L462 160L481 232L497 232L497 130L484 130L484 190L471.888 147L466.342 131.15L447 130z"/>
<path style="fill:#c4c2c3; stroke:none;" d="M483 130L483 190L484 190L484 150L483 130z"/>
<path style="fill:#ece8e5; stroke:none;" d="M497 130L497 232L498 232L498 162L497 130z"/>
<path style="fill:#a0a09e; stroke:none;" d="M357 136L357 140L358 140L357 136z"/>
<path style="fill:#bdbcb8; stroke:none;" d="M373 136L373 139L374 139L373 136z"/>
<path style="fill:#989793; stroke:none;" d="M410 136L410 140L411 140L410 136z"/>
<path style="fill:#c0bebf; stroke:none;" d="M395 137L395 141L396 141L395 137z"/>
<path style="fill:#bcbbb9; stroke:none;" d="M469.333 138.667L469.667 139.333L469.333 138.667z"/>
<path style="fill:#c2c3be; stroke:none;" d="M141 143L141 144L146 144L141 143M248 143L248 144L253 144L248 143z"/>
<path style="fill:#c0c0c0; stroke:none;" d="M358 143L358 146L359 146L358 143z"/>
<path style="fill:#8d8c88; stroke:none;" d="M409 143L409 147L410 147L409 143z"/>
<path style="fill:#bfc0bb; stroke:none;" d="M530 143L530 144L535 144L530 143z"/>
<path style="fill:#d6d7d2; stroke:none;" d="M77 144L77 145L88 145L77 144z"/>
<path style="fill:#61605b; stroke:none;" d="M139.157 145.15C133.59 148.334 135 156.636 135 162C135 177.608 133.137 194.534 135.228 209.999C136.03 215.931 140.673 220.931 146.899 217.584C152.559 214.541 151 206.353 151 201C151 185.416 154.862 164.002 150.588 149.042C149.225 144.273 143.272 142.796 139.157 145.15z"/>
<path style="fill:#d6d7d2; stroke:none;" d="M300 144L300 145L328 145L300 144z"/>
<path style="fill:#61605b; stroke:none;" d="M528.156 145.15C522.59 148.334 524 156.636 524 162C524 177.683 521.605 195.54 524.27 210.989C525.191 216.324 530.457 220.823 535.899 217.846C541.544 214.759 540 206.343 540 201C540 185.416 543.862 164.002 539.588 149.042C538.225 144.273 532.272 142.796 528.156 145.15z"/>
<path style="fill:#d7d7d5; stroke:none;" d="M76 145L76 218L77 218L77 169L76 145z"/>
<path style="fill:#61605b; stroke:none;" d="M77 145L77 217C81.3819 217 88.7284 218.359 91.8297 214.479C95.0076 210.503 93.9999 203.727 94 199L94 164C94 159.214 95.1902 152.309 92.1553 148.216C88.8449 143.751 81.8597 145 77 145z"/>
<path style="fill:#ebeae8; stroke:none;" d="M167 147L167 214L168 214L168 169L167 147z"/>
<path style="fill:#d8d7d5; stroke:none;" d="M226 147L226 212L227 212L227 168L226 147z"/>
<path style="fill:#9d9c98; stroke:none;" d="M151 150L151 212L152 212L152 170L151 150z"/>
<path style="fill:#afb0ab; stroke:none;" d="M242 150L242 212L243 212L243 170L242 150z"/>
<path style="fill:#b4b3af; stroke:none;" d="M359 150L359 153L360 153L359 150z"/>
<path style="fill:#afaeac; stroke:none;" d="M408 150L408 153L409 153L408 150z"/>
<path style="fill:#9c9b97; stroke:none;" d="M540 150L540 212L541 212L541 170L540 150z"/>
<path style="fill:#9c9d98; stroke:none;" d="M274 151L274 165L275 165L274 151z"/>
<path style="fill:#9e9d9b; stroke:none;" d="M393 151L393 154L394 154L393 151z"/>
<path style="fill:#a09f9d; stroke:none;" d="M376 155L376 158L377 158L376 155z"/>
<path style="fill:#959490; stroke:none;" d="M360 156L360 160L361 160L360 156z"/>
<path style="fill:#cfceca; stroke:none;" d="M392 158L392 163L393 163L392 158z"/>
<path style="fill:#9c9b97; stroke:none;" d="M461 160L461 232L462 232L462 181L461 160z"/>
<path style="fill:#9f9e9c; stroke:none;" d="M361 162L361 166L362 166L361 162z"/>
<path style="fill:#d0d1cc; stroke:none;" d="M377 162L377 167L378 167L377 162z"/>
<path style="fill:#c4c2c3; stroke:none;" d="M259 164L259 165L274 165L259 164z"/>
<path style="fill:#bfbfbf; stroke:none;" d="M476.333 164.667L476.667 165.333L476.333 164.667z"/>
<path style="fill:#c0bfbd; stroke:none;" d="M362 169L362 172L363 172L362 169z"/>
<path style="fill:#a8a9a4; stroke:none;" d="M378 169L378 172L379 172L378 169z"/>
<path style="fill:#bebebe; stroke:none;" d="M390 171L390 175L391 175L390 171z"/>
<path style="fill:#888984; stroke:none;" d="M322 173L322 188L323 188L322 173z"/>
<path style="fill:#a4a2a3; stroke:none;" d="M465.333 173.667L465.667 174.333L465.333 173.667z"/>
<path style="fill:#9c9b99; stroke:none;" d="M363 175L363 179L364 179L363 175z"/>
<path style="fill:#c6c6c4; stroke:none;" d="M389 178L389 182L390 182L389 178z"/>
<path style="fill:#bbbab6; stroke:none;" d="M364 182L364 185L365 185L364 182z"/>
<path style="fill:#c9c9c7; stroke:none;" d="M380 182L380 186L381 186L380 182z"/>
<path style="fill:#acaba9; stroke:none;" d="M468.333 184.667L468.667 185.333L468.333 184.667z"/>
<path style="fill:#a09f9b; stroke:none;" d="M388 185L388 188L389 188L388 185z"/>
<path style="fill:#9f9e9c; stroke:none;" d="M381 189L381 192L382 192L381 189z"/>
<path style="fill:#cdccca; stroke:none;" d="M387 192L387 196L388 196L387 192z"/>
<path style="fill:#9c9d98; stroke:none;" d="M274 194L274 212L275 212L274 194z"/>
<path style="fill:#90918c; stroke:none;" d="M366 195L366 199L367 199L366 195z"/>
<path style="fill:#b8b8b6; stroke:none;" d="M382 195L382 200L383 200L382 195z"/>
<path style="fill:#a4a09d; stroke:none;" d="M472.333 199.667L472.667 200.333L472.333 199.667z"/>
<path style="fill:#969593; stroke:none;" d="M400 201L400 205L401 205L400 201z"/>
<path style="fill:#b0b1ac; stroke:none;" d="M367 202L367 205L368 205L367 202z"/>
<path style="fill:#c0c0c2; stroke:none;" d="M383 202L383 207L384 207L383 202z"/>
<path style="fill:#c1bfc0; stroke:none;" d="M385 205L385 209L386 209L385 205z"/>
<path style="fill:#8e8d89; stroke:none;" d="M368 208L368 212L369 212L368 208z"/>
<path style="fill:#a6a5a1; stroke:none;" d="M475.333 210.667L475.667 211.333L475.333 210.667z"/>
<path style="fill:#908f8b; stroke:none;" d="M109 212L109 216L110 216L109 212z"/>
<path style="fill:#c0bfbd; stroke:none;" d="M258.333 212.667L258.667 213.333L258.333 212.667z"/>
<path style="fill:#b1b0ac; stroke:none;" d="M508 213L508 216L509 216L508 213z"/>
<path style="fill:#c3bfbc; stroke:none;" d="M273 214L273 217L274 217L273 214z"/>
<path style="fill:#c1bfc0; stroke:none;" d="M398 214L398 217L399 217L398 214z"/>
<path style="fill:#9d9c97; stroke:none;" d="M77 217L77 218L89 218L77 217z"/>
<path style="fill:#9c9d97; stroke:none;" d="M300 217L300 218L328 218L300 217z"/>
<path style="fill:#d7d7d5; stroke:none;" d="M220 218L220 232L221 232L220 218z"/>
<path style="fill:#9f9e9a; stroke:none;" d="M248 218L248 219L254 219L248 218z"/>
<path style="fill:#a09f9b; stroke:none;" d="M397 220L397 225L398 225L397 220z"/>
<path style="fill:#bebdbb; stroke:none;" d="M370 221L370 224L371 224L370 221z"/>
<path style="fill:#9b9b99; stroke:none;" d="M479.333 225.667L479.667 226.333L479.333 225.667z"/>
<path style="fill:#bfbfbd; stroke:none;" d="M396 227L396 230L397 230L396 227z"/>
<path style="fill:#a6a5a1; stroke:none;" d="M93.6667 231.333L94.3333 231.667L93.6667 231.333z"/>
<path style="fill:#9c9d98; stroke:none;" d="M61 232L61 233L89 233L61 232z"/>
<path style="fill:#9d9c98; stroke:none;" d="M178 232L178 233L221 233C209.173 228.58 190.637 232 178 232z"/>
<path style="fill:#9c9d98; stroke:none;" d="M284 232L284 233L328 233C315.92 228.485 296.91 232 284 232z"/>
<path style="fill:#9d9c98; stroke:none;" d="M372 232L372 233L396 233L372 232M419 232L419 233L435 233L419 232z"/>
<path style="fill:#9c9d98; stroke:none;" d="M447 232L447 233L461 233L447 232M481 232L481 233L498 233L481 232z"/>
<path style="fill:#b0b0ae; stroke:none;" d="M138 233L138 234L147 234L138 233z"/>
<path style="fill:#b0b1ac; stroke:none;" d="M245 233L245 234L254 234L245 233z"/>
<path style="fill:#afb0ab; stroke:none;" d="M527 233L527 234L536 234L527 233z"/>
<path style="fill:#63643c; stroke:none;" d="M60 284L62 294L63 294L61 285L553 285C540.674 280.394 521.171 284 508 284L406 284L60 284z"/>
<path style="fill:#a2a941; stroke:none;" d="M61 288L62 288C68.8575 283.312 82.8742 286 91 286L164 286L442 286L522 286C530.547 286 545.804 283.081 553 288C555.355 283.491 535.568 285 532 285L462 285L169 285L87 285C81.6853 285 62.2266 282.276 61 288z"/>
<path style="fill:#bbc620; stroke:none;" d="M62 286L67.5793 308L62 336L555 336L547.21 310L553 286L62 286z"/>
<path style="fill:#898c3f; stroke:none;" d="M111 299L111 300L119 300L111 299z"/>
<path style="fill:#8b8c3c; stroke:none;" d="M130 299L130 300L141 300L130 299z"/>
<path style="fill:#898a3a; stroke:none;" d="M148 299L148 300L156 300L148 299z"/>
<path style="fill:#b8be50; stroke:none;" d="M166 299L166 322L167 322L167 300L170 300L170 323L171 323L171 299L166 299z"/>
<path style="fill:#6b6c1c; stroke:none;" d="M178 299L178 323L187 323L187 322L179 322L179 300L187 300L178 299z"/>
<path style="fill:#898d2f; stroke:none;" d="M203 299L203 300L207 300L203 299z"/>
<path style="fill:#393512; stroke:none;" d="M220 315L218 315C218.286 320.586 225.723 327.477 229.278 319.702C232.569 312.507 212.951 299.552 230 306C228.46 299.649 218.955 296.24 218.317 305.011C217.837 311.614 226.154 311.059 226.87 316.142C227.72 322.169 221.133 318.324 220 315z"/>
<path style="fill:#3c390e; stroke:none;" d="M271 323L270 312L266 315L263 309C266.373 306.299 265.914 297.159 260.398 300.251C256.54 302.413 254.36 319.029 258.412 321.704C261.497 323.74 267.324 322.389 271 323z"/>
<path style="fill:#898a3c; stroke:none;" d="M296 299L296 300L304 300L296 299z"/>
<path style="fill:#888c3f; stroke:none;" d="M317 299L317 300L328 300L317 299z"/>
<path style="fill:#393414; stroke:none;" d="M376 314C372.795 314.683 372.167 320.562 369 319.944C361.597 318.5 364.717 293.622 374 306C376.565 297.756 364.267 297.498 363.156 306.004C362.61 310.191 362.289 317.069 365.035 320.588C370.28 327.308 375.199 318.767 376 314z"/>
<path style="fill:#898b37; stroke:none;" d="M400 299L400 300L413 300L400 299z"/>
<path style="fill:#696b29; stroke:none;" d="M419 299L419 323L430 323L430 322L420 322L420 300L430 300L419 299z"/>
<path style="fill:#393915; stroke:none;" d="M436 315C437.029 320.631 446.134 327.704 448.573 318.844C450.498 311.851 432.387 299.717 449 306C448.251 300.085 439.995 295.328 437.333 303C434.423 311.386 443.712 310.276 446.25 315.25C447.811 318.31 443.849 321.511 441.111 319.639C438.583 317.91 439.232 315.689 436 315z"/>
<path style="fill:#3c3719; stroke:none;" d="M458 315L456 315C456.284 320.563 463.731 327.565 467.282 319.785C470.684 312.332 451.08 299.601 468 306C466.46 299.649 456.955 296.24 456.317 305.011C455.837 311.614 464.154 311.059 464.87 316.142C465.72 322.169 459.133 318.324 458 315z"/>
<path style="fill:#8d8b3e; stroke:none;" d="M475 299L475 300L486 300L475 299z"/>
<path style="fill:#3c3a14; stroke:none;" d="M111 300L111 323C121.313 322.933 122.518 319.472 122.474 310C122.461 307.311 123.437 304.001 121.279 301.845C118.811 299.379 114.169 300.007 111 300z"/>
<path style="fill:#aaab4d; stroke:none;" d="M129 300L129 324L141 324L141 323L130 323L129 300z"/>
<path style="fill:#3b3712; stroke:none;" d="M130 300L130 322L140 322L140 321C133.719 320.679 132.135 318.062 132 312L140 312L140 309L133 309L133 302L141 302L141 300L130 300z"/>
<path style="fill:#3c3918; stroke:none;" d="M148 300L148 323C158.284 322.933 159.559 319.477 159.471 310C159.446 307.283 160.297 304.025 158.151 301.845C155.722 299.375 151.139 300.007 148 300z"/>
<path style="fill:#4b4c08; stroke:none;" d="M167 300L167 323L170 323L170 300L167 300z"/>
<path style="fill:#393913; stroke:none;" d="M179 300L179 322C196.165 321.987 196.364 300.048 179 300M197 323C200.551 321.961 200.752 319.47 201 316L212 323C211.82 319.695 209.346 299.264 204.355 300.933C199.576 302.531 197.928 318.594 197 323z"/>
<path style="fill:#383911; stroke:none;" d="M296 300L296 323C305.748 322.973 316.347 310.313 306.479 301.717C303.776 299.362 299.315 300.002 296 300z"/>
<path style="fill:#8a8f28; stroke:none;" d="M316 300L316 323L317 323L316 300z"/>
<path style="fill:#3a3811; stroke:none;" d="M317 300L317 322L327 322L327 321L319 321L319 312L327 312L327 309L319 309L319 302L328 302L328 300L317 300z"/>
<path style="fill:#8a8f29; stroke:none;" d="M334 300L334 323L335 323L334 300z"/>
<path style="fill:#393a12; stroke:none;" d="M335 300L335 323L346 323L346 320L337 320L337 300L335 300z"/>
<path style="fill:#9b9e33; stroke:none;" d="M352 300L352 323L353 323L352 300z"/>
<path style="fill:#3b3a0e; stroke:none;" d="M353 300L353 323L355 323L355 300L353 300z"/>
<path style="fill:#3c3a13; stroke:none;" d="M386 300L381 323L384 323C384.557 317.716 386.842 316.264 392 316C392.353 319.364 392.418 322.236 396 323L391 300L386 300z"/>
<path style="fill:#3a3c0d; stroke:none;" d="M400 300L400 302L406 302L406 322L408 322L408 302L413 302L413 300L400 300z"/>
<path style="fill:#383b0e; stroke:none;" d="M420 300L420 322L430 322L430 320L422 320L422 312L430 312L430 309L422 309L422 302L430 302L430 300L420 300z"/>
<path style="fill:#5a5a1e; stroke:none;" d="M475 300L475 323L486 323L486 322L476 322L475 300z"/>
<path style="fill:#3c3813; stroke:none;" d="M476 300L476 322L486 322L486 320L478 320L478 312L486 312L486 309L478 309L478 302L486 302L486 300L476 300z"/>
<path style="fill:#393609; stroke:none;" d="M493 300L493 323L496 323L496 305L497 305L502 323L506 323L506 300L504 300L504 318L503 318L498 300L493 300z"/>
<path style="fill:#898a3e; stroke:none;" d="M506 300L506 323L507 323L506 300z"/>
<path style="fill:#bfc420; stroke:none;" d="M114 302L114 309C120.666 308.277 120.666 302.723 114 302z"/>
<path style="fill:#787c32; stroke:none;" d="M150 302L150 309L151 309L150 302z"/>
<path style="fill:#bcc52a; stroke:none;" d="M151 302L151 309C157.666 308.277 157.666 302.723 151 302z"/>
<path style="fill:#bbc71f; stroke:none;" d="M181 302L181 320C192.035 319.429 191.758 303.118 181 302z"/>
<path style="fill:#b7c339; stroke:none;" d="M261 302L261 307L263 307L263 302L261 302z"/>
<path style="fill:#797a34; stroke:none;" d="M266 302L266 306L267 306L266 302z"/>
<path style="fill:#7a7939; stroke:none;" d="M298 302L298 320L299 320L298 302z"/>
<path style="fill:#bbc429; stroke:none;" d="M299 302L299 320C308.861 318.961 308.861 303.039 299 302z"/>
<path style="fill:#686b26; stroke:none;" d="M400 302L400 303L405 303C405 307.787 402.571 321.837 408 323L408 322L406 302L400 302z"/>
<path style="fill:#b6c141; stroke:none;" d="M204 303L202 314L207 314L204 303z"/>
<path style="fill:#74770e; stroke:none;" d="M375 303L373 305L376 307L375 303z"/>
<path style="fill:#b5c03d; stroke:none;" d="M388 303L386 314L391 314L388 303z"/>
<path style="fill:#7d821b; stroke:none;" d="M85 304L85 305L90 305L85 304z"/>
<path style="fill:#7a7e1f; stroke:none;" d="M528 304L528 305L532 305L528 304z"/>
<path style="fill:#39342e; stroke:none;" d="M84.1566 305.848C76.5115 309.189 82.7991 319.886 89.8989 317.124C98.0686 313.945 92.3889 302.25 84.1566 305.848z"/>
<path style="fill:#393430; stroke:none;" d="M526.216 306.151C519.337 310.293 526.005 320.367 532.899 316.701C541.041 312.371 533.62 301.692 526.216 306.151z"/>
<path style="fill:#7c8125; stroke:none;" d="M306 306L306 316L307 316L306 306z"/>
<path style="fill:#7c7f26; stroke:none;" d="M365 306L365 316L366 316L365 306z"/>
<path style="fill:#6c6d27; stroke:none;" d="M94 309L94 313L95 313L94 309z"/>
<path style="fill:#787c32; stroke:none;" d="M114 309L114 310L118 310L114 309z"/>
<path style="fill:#77782a; stroke:none;" d="M151 309L151 310L155 310L151 309z"/>
<path style="fill:#6d6a1d; stroke:none;" d="M113 312L113 320L114 320L113 312z"/>
<path style="fill:#bdc522; stroke:none;" d="M114 312L114 320C121.901 319.584 121.674 312.809 114 312z"/>
<path style="fill:#7a7b37; stroke:none;" d="M132 312L132 320L133 320L132 312z"/>
<path style="fill:#797b32; stroke:none;" d="M150 312L150 320L151 320L150 312z"/>
<path style="fill:#bbc528; stroke:none;" d="M151 312L151 320C157.991 319.241 157.991 312.759 151 312z"/>
<path style="fill:#b8c430; stroke:none;" d="M265 320L262 312C256.419 315.47 258.807 320.555 265 320z"/>
<path style="fill:#868f22; stroke:none;" d="M123 313L123 318L124 318L123 313z"/>
<path style="fill:#848343; stroke:none;" d="M157 314L157 318L158 318L157 314z"/>
<path style="fill:#868938; stroke:none;" d="M227 314L227 319L228 319L227 314z"/>
<path style="fill:#818232; stroke:none;" d="M230 314L230 318L231 318L230 314z"/>
<path style="fill:#6d6d2d; stroke:none;" d="M255 314L255 319L256 319L255 314z"/>
<path style="fill:#868b25; stroke:none;" d="M446 314L446 319L447 319L446 314z"/>
<path style="fill:#838824; stroke:none;" d="M449 314L449 318L450 318L449 314z"/>
<path style="fill:#777e30; stroke:none;" d="M468 314L468 319L469 319L468 314z"/>
<path style="fill:#b7bf46; stroke:none;" d="M66 315L60 337L557 337L556 333L555 333L555 336L62 336L66 315z"/>
<path style="fill:#5a5c1d; stroke:none;" d="M133 320L133 321L140 321L140 322L130 322L130 323L141 323L141 320L133 320z"/>
<path style="fill:#585d1d; stroke:none;" d="M319 320L319 321L327 321L327 322L317 322L317 323L328 323L328 320L319 320z"/>
<path style="fill:#636534; stroke:none;" d="M61 337L61 338L557 338C544.421 333.299 524.444 337 511 337L409 337L61 337z"/>
</svg>
