<svg width="32" height="32" viewBox="0 0 32 32" fill="none" xmlns="http://www.w3.org/2000/svg">
<path d="M16 0C7.16364 0 0 7.16363 0 16C0 18.9564 0.805273 21.7234 2.20455 24.0994L0.156247 31.7699L8.2017 29.9702C10.5093 31.2611 13.168 32 16 32C24.8364 32 32 24.8364 32 16C32 7.16364 24.8364 0 16 0ZM16 2.90909C23.2298 2.90909 29.0909 8.77018 29.0909 16C29.0909 23.2298 23.2298 29.0909 16 29.0909C13.2865 29.0909 10.7663 28.2654 8.67614 26.8523L4.21165 27.8508L5.34801 23.5923C3.81856 21.4498 2.90909 18.8335 2.90909 16C2.90909 8.77019 8.77018 2.90909 16 2.90909ZM10.5256 8.53551C10.2587 8.53551 9.82959 8.63416 9.46449 9.03125C9.10595 9.42907 8.08239 10.3846 8.08239 12.3381C8.08239 14.2843 9.49607 16.1722 9.69461 16.4318C9.89316 16.6987 12.4368 20.8286 16.4688 22.4162C19.8113 23.7326 20.4942 23.4718 21.2259 23.4034C21.9517 23.3409 23.5697 22.4485 23.8992 21.5242C24.2279 20.5991 24.2276 19.8058 24.125 19.6392C24.0254 19.4778 23.765 19.3775 23.3679 19.179C22.9708 18.9797 21.0228 18.0201 20.6577 17.8892C20.2977 17.7583 20.031 17.6896 19.7713 18.0866C19.5044 18.4837 18.7477 19.3774 18.5114 19.6378C18.2823 19.9047 18.0534 19.9358 17.6563 19.7372C17.2592 19.5387 15.9822 19.1219 14.4688 17.7699C13.2913 16.7219 12.4962 15.424 12.2671 15.0284C12.0372 14.632 12.2418 14.4159 12.4404 14.2173C12.6207 14.0442 12.8384 13.7575 13.0369 13.5284C13.2289 13.2928 13.2967 13.132 13.4276 12.8651C13.565 12.6054 13.4952 12.369 13.3963 12.1705C13.2981 11.9712 12.5282 10.0112 12.1747 9.23011C11.878 8.57266 11.5678 8.55342 11.2827 8.54688C11.0521 8.53524 10.7852 8.53551 10.5256 8.53551Z" fill="white"/>
</svg>
