<?xml version="1.0" standalone="no"?>
<!DOCTYPE svg PUBLIC "-//W3C//DTD SVG 20010904//EN"
 "http://www.w3.org/TR/2001/REC-SVG-20010904/DTD/svg10.dtd">
<svg version="1.0" xmlns="http://www.w3.org/2000/svg"
 width="1200.000000pt" height="628.000000pt" viewBox="0 0 1200.000000 628.000000"
 preserveAspectRatio="xMidYMid meet">

<g transform="translate(0.000000,628.000000) scale(0.100000,-0.100000)"
fill="#000000" stroke="none">
<path d="M0 3140 l0 -3140 1723 1 c979 0 1713 4 1701 9 -12 5 -29 19 -37 31
-13 18 -19 20 -31 10 -8 -7 -25 -11 -37 -9 -20 3 -23 10 -26 56 -2 41 1 56 17
72 11 11 27 20 35 20 8 0 15 6 15 14 0 18 40 47 53 39 5 -3 7 3 3 13 -3 11
-10 42 -15 69 -12 61 -26 101 -40 110 -6 3 -11 19 -11 36 0 34 -10 36 -93 14
-69 -18 -112 -7 -102 25 4 14 2 20 -8 20 -10 0 -17 15 -21 43 -10 74 -12 81
-24 85 -6 2 -23 -8 -36 -23 -24 -25 -26 -26 -55 -11 -38 20 -52 45 -54 96 -1
22 -5 40 -9 40 -4 0 -8 12 -8 28 0 33 -14 57 -28 48 -7 -4 -6 -15 4 -34 24
-46 18 -70 -26 -100 -41 -28 -47 -41 -30 -73 9 -15 5 -29 -15 -62 -14 -24 -25
-57 -25 -73 0 -21 -9 -37 -35 -57 -19 -15 -42 -41 -50 -57 -19 -37 -62 -43
-50 -7 3 12 9 32 12 45 8 33 -18 28 -42 -8 -28 -41 -42 -38 -36 8 1 8 -3 20
-9 28 -10 11 -15 10 -31 -9 -16 -19 -20 -20 -28 -7 -16 23 -22 7 -11 -31 6
-18 10 -40 10 -46 0 -21 -30 -15 -50 10 -10 12 -21 19 -24 16 -3 -3 -9 -33
-12 -67 -4 -38 -11 -59 -17 -55 -5 3 -23 -9 -39 -28 l-28 -34 -20 24 c-11 13
-20 29 -20 36 0 11 -10 36 -50 130 -5 11 -11 36 -14 55 -3 19 -10 55 -15 80
-6 25 -10 62 -11 84 0 33 -7 44 -47 81 -26 24 -50 42 -54 40 -3 -3 -9 -18 -13
-35 -6 -31 -37 -53 -44 -32 -2 7 -7 10 -12 7 -5 -3 -12 4 -15 16 -6 17 0 28
24 49 32 28 42 60 59 180 5 40 12 56 25 58 15 3 17 -5 17 -55 0 -81 8 -105 31
-98 11 4 19 2 19 -5 0 -8 6 -8 21 0 16 9 29 8 58 -4 34 -13 41 -13 60 0 14 10
21 26 21 48 0 33 13 46 46 46 8 0 28 -23 45 -51 23 -37 34 -47 40 -37 7 10 12
11 28 1 23 -14 112 -20 130 -9 8 5 10 19 5 38 -6 31 -6 31 27 24 18 -3 37 -13
42 -21 4 -9 13 -13 18 -9 6 4 6 10 -1 19 -6 7 -7 15 -3 18 56 30 338 49 396
26 20 -9 34 -8 56 1 25 10 32 9 49 -8 20 -20 93 -36 152 -33 19 1 46 -2 60 -8
14 -5 19 -10 12 -10 -9 -1 -10 -6 -3 -20 6 -10 8 -21 6 -23 -3 -3 8 -5 25 -6
17 0 28 3 25 8 -6 10 -7 19 -25 169 -8 67 -9 96 -1 104 26 26 35 -14 70 -303
5 -48 10 -57 35 -69 22 -10 34 -11 47 -3 13 9 21 7 35 -9 18 -20 18 -20 28 3
5 13 17 50 25 82 19 69 34 80 48 34 8 -23 11 -27 12 -12 2 42 51 60 70 26 5
-10 12 -49 16 -87 6 -58 11 -73 32 -89 25 -18 25 -18 54 15 24 29 30 32 39 19
6 -10 10 -11 10 -2 0 6 9 12 21 12 11 0 18 -4 15 -8 -3 -4 12 -8 32 -9 20 0
50 -6 66 -12 16 -6 31 -9 34 -6 3 3 5 27 3 53 -2 37 2 52 17 65 26 24 36 9 52
-75 12 -61 12 -69 -3 -86 -9 -10 -17 -24 -17 -30 0 -6 -11 -19 -25 -28 -14 -9
-25 -25 -25 -35 0 -10 -4 -21 -10 -24 -6 -3 -10 -15 -10 -26 0 -34 -19 -20
-25 19 -3 20 -8 45 -10 54 -1 10 6 29 17 43 17 21 17 25 3 25 -17 0 -18 -3
-35 -65 -5 -22 -14 -46 -19 -54 -12 -19 -45 -6 -61 24 -16 29 -28 31 -45 8
-13 -17 -14 -17 -33 0 -12 11 -30 17 -44 14 -22 -4 -22 -4 -1 -6 17 -1 25 -10
32 -39 14 -49 14 -57 -3 -71 -18 -16 -24 -5 -28 51 -3 42 -5 45 -19 32 -8 -8
-21 -14 -27 -14 -17 0 -15 30 3 36 22 9 18 24 -5 24 -13 0 -22 -9 -26 -27 -10
-41 -14 -45 -30 -32 -12 10 -18 8 -30 -9 -23 -33 -37 -27 -62 29 -21 46 -25
49 -40 36 -10 -8 -23 -12 -30 -10 -6 3 -13 -1 -13 -9 -9 -78 -8 -82 32 -122
22 -21 44 -46 48 -54 5 -8 19 -16 32 -18 13 -1 27 -3 30 -3 4 -1 9 -10 12 -21
3 -14 14 -20 31 -20 40 0 35 -42 -10 -87 -29 -29 -35 -40 -29 -62 4 -14 6 -43
6 -63 -1 -36 0 -37 32 -36 41 1 60 -9 53 -28 -5 -12 56 -14 393 -14 310 0 400
3 404 13 3 9 9 9 26 0 28 -17 59 -16 77 2 9 8 22 15 30 15 8 0 14 -7 14 -15 0
-13 181 -15 1566 -15 l1566 0 -5 26 c-3 15 0 28 8 30 13 5 28 44 16 42 -27 -3
-42 4 -37 17 3 10 -1 15 -13 15 -33 0 -51 11 -51 31 0 16 -7 19 -43 19 -24 0
-47 4 -53 9 -5 5 -18 11 -29 13 -17 4 -16 7 10 18 43 18 103 13 144 -11 34
-20 36 -20 48 -2 10 13 16 15 21 6 9 -15 99 -25 107 -12 13 21 30 3 33 -35 0
-5 8 -13 17 -18 35 -20 -14 -82 -92 -119 -24 -11 -43 -22 -43 -24 0 -3 36 -5
80 -5 66 0 78 2 74 15 -4 8 -2 15 4 15 5 0 15 -7 22 -15 10 -12 39 -15 141
-15 l128 0 21 30 c23 33 36 31 50 -5 l9 -24 596 -1 595 0 10 25 c13 35 13 35
-12 35 -34 0 -68 11 -68 22 0 5 -10 22 -22 39 -19 25 -21 34 -11 59 8 22 8 30
0 30 -6 0 -21 9 -33 21 -17 16 -29 19 -54 14 -30 -7 -31 -9 -26 -40 6 -28 3
-35 -14 -40 -25 -8 -50 10 -50 36 0 12 -7 19 -19 19 -21 0 -31 -19 -31 -56 0
-31 -39 -34 -47 -4 -5 18 -13 21 -66 24 -10 1 -21 6 -25 11 -4 6 -16 11 -27
12 -11 1 -49 9 -85 18 -36 9 -92 21 -125 26 -126 18 -171 27 -203 39 -18 7
-46 10 -62 7 -16 -4 -41 0 -57 8 -40 20 -165 35 -208 25 -20 -5 -45 -16 -55
-25 -11 -10 -44 -18 -89 -22 l-71 -6 0 30 c0 40 -24 61 -51 45 -21 -13 -43 -7
-34 9 7 11 -42 32 -56 23 -5 -3 -9 -12 -9 -20 0 -7 -9 -19 -19 -26 -15 -9 -17
-16 -10 -25 18 -21 2 -30 -53 -25 -57 4 -82 17 -55 28 26 10 20 24 -9 24 -16
0 -34 -10 -47 -26 -16 -21 -26 -25 -49 -20 -16 3 -41 15 -55 26 -28 22 -63 26
-79 10 -7 -7 -21 -5 -42 6 -18 8 -63 19 -100 24 -37 4 -59 8 -49 9 20 1 23 20
5 26 -7 2 -34 6 -60 10 -55 7 -65 -7 -17 -24 32 -11 36 -37 6 -35 -9 0 -36 1
-59 2 -32 2 -39 5 -28 12 12 8 11 10 -7 10 -13 0 -23 6 -23 14 0 15 -29 30
-39 20 -3 -4 0 -9 7 -11 6 -3 12 -8 12 -13 0 -17 -38 -20 -86 -9 -27 6 -60 11
-72 10 -13 0 -33 6 -45 14 -12 8 -37 15 -57 15 -19 1 -53 7 -74 15 -36 12 -41
12 -52 -3 -10 -14 -18 -15 -53 -6 -49 13 -102 10 -161 -11 -52 -18 -84 -12
-75 16 4 10 2 19 -4 19 -7 0 -7 8 1 25 13 29 5 43 -15 26 -19 -15 -46 -10 -84
17 -39 27 -67 28 -91 2 -20 -21 -116 -37 -126 -21 -9 15 12 34 33 28 12 -3 21
-1 21 4 0 5 7 9 15 9 21 0 19 20 -2 21 -20 1 -13 4 32 14 26 6 27 8 11 14 -22
9 -30 42 -13 53 8 5 7 8 -4 8 -23 0 -33 29 -13 37 9 3 19 1 23 -5 8 -13 59
-10 86 6 20 11 20 11 -2 12 -27 0 -38 16 -18 24 17 6 46 -3 58 -18 6 -8 10 -7
14 2 2 6 22 12 43 12 21 0 42 5 45 10 5 8 12 7 22 -1 12 -11 14 -10 11 6 -1
10 3 20 10 22 6 3 12 1 12 -4 0 -5 16 -7 36 -5 24 3 39 0 45 -9 7 -11 9 -11 9
2 0 12 13 16 65 17 36 0 65 -4 65 -9 0 -5 -4 -8 -9 -7 -8 3 -11 -2 -11 -17 0
-3 9 -1 21 6 19 10 20 9 14 -13 l-6 -23 20 23 c11 12 23 22 28 21 4 -1 10 0
13 1 8 3 42 8 85 13 22 3 33 3 24 1 -25 -7 -39 -46 -23 -61 10 -10 16 -10 26
0 14 13 100 19 92 5 -7 -11 0 -10 30 4 20 8 35 8 66 -1 22 -7 38 -16 35 -21
-4 -6 7 -10 24 -10 16 0 33 -5 36 -10 4 -6 15 -8 26 -5 20 7 27 -9 9 -20 -15
-9 -2 -25 15 -19 8 3 20 0 27 -6 7 -6 51 -31 98 -55 58 -29 85 -48 85 -61 0
-11 11 -21 30 -26 17 -5 52 -16 80 -25 27 -9 65 -16 82 -15 18 2 33 -2 33 -8
0 -5 7 -10 15 -10 8 0 19 -9 25 -20 7 -13 21 -20 40 -20 16 0 32 -4 35 -10 11
-18 35 -11 35 10 0 15 7 20 25 20 14 0 25 4 25 9 0 5 -20 9 -45 9 -25 -1 -51
4 -57 10 -6 6 -17 8 -24 5 -18 -7 -18 12 0 29 11 11 11 15 -3 25 -14 11 -14
14 -1 22 10 7 15 27 15 58 1 42 4 48 23 51 28 4 30 42 2 49 -31 8 -24 23 13
24 17 1 24 3 15 6 -10 2 -18 9 -18 14 0 5 -5 9 -11 9 -5 0 -7 -4 -4 -10 4 -6
-6 -10 -22 -9 -24 0 -25 1 -8 8 16 7 7 11 -40 21 -33 7 -64 16 -70 20 -5 4
-23 10 -40 14 -16 4 -38 14 -47 23 -10 8 -30 17 -45 18 -15 2 -44 10 -63 18
l-35 16 42 17 c23 9 40 21 37 25 -6 11 5 12 74 9 43 -1 52 1 52 15 0 20 -36
55 -56 55 -7 0 -15 6 -18 13 -3 8 -9 6 -20 -7 -12 -14 -13 -23 -5 -33 13 -15
11 -15 -69 -33 -40 -9 -50 -15 -42 -25 12 -14 -2 -29 -35 -37 -17 -4 -21 0
-23 20 -1 14 -11 31 -22 39 -11 8 -18 19 -15 24 8 11 -9 11 -119 -1 -141 -17
-246 -18 -246 -4 0 6 -9 14 -20 17 -11 3 -19 11 -18 18 2 9 -11 13 -44 14 -34
0 -44 -3 -37 -11 6 -8 4 -14 -6 -18 -9 -3 -14 -2 -11 3 7 10 -17 21 -45 21
-10 0 -19 4 -19 9 0 7 -32 10 -213 13 -53 1 -67 4 -63 15 3 8 2 12 -3 9 -12
-8 -63 19 -54 27 3 4 -1 7 -10 7 -8 0 -23 -7 -32 -16 -15 -15 -17 -15 -34 0
-10 9 -22 16 -28 16 -5 0 -15 11 -22 23 -10 20 -10 32 2 67 l14 42 234 0 c129
-1 257 -6 284 -11 109 -23 173 -33 230 -37 107 -6 186 -21 207 -40 19 -18 56
-20 68 -5 3 3 18 13 33 20 25 13 31 13 56 -2 16 -9 54 -19 85 -23 31 -4 56
-11 56 -17 0 -5 14 -7 33 -4 17 3 26 3 20 0 -19 -7 -16 -23 5 -23 10 0 26 -15
37 -36 10 -19 32 -42 47 -50 33 -17 37 -28 6 -18 -19 6 -18 2 9 -25 18 -17 53
-66 79 -109 88 -141 175 -242 211 -242 6 0 16 -6 22 -14 6 -7 39 -16 72 -20
34 -3 67 -12 73 -19 6 -8 28 -24 49 -37 41 -24 93 -22 121 6 12 12 54 14 253
12 228 -2 240 -1 280 20 44 23 67 46 36 36 -10 -4 0 10 21 30 43 39 80 46 133
25 15 -6 39 -13 53 -15 14 -2 36 -7 50 -11 30 -8 60 -10 165 -11 135 -3 172
-6 182 -15 10 -11 25 -8 18 3 -3 6 -1 10 4 10 6 0 11 7 11 16 0 12 5 13 23 8
12 -4 56 -7 97 -7 53 1 68 -1 50 -7 -21 -7 -19 -9 20 -10 25 -1 77 -1 115 -1
39 0 81 -2 95 -5 24 -5 24 -5 -7 -21 -34 -16 -36 -49 -2 -40 11 3 21 2 24 -3
2 -4 -9 -10 -25 -13 -21 -5 -28 -11 -24 -22 3 -8 10 -15 15 -15 4 0 6 7 3 15
-5 12 4 15 45 15 28 0 51 -4 51 -8 0 -5 10 -14 23 -21 21 -10 21 -11 1 -6 -14
4 -24 0 -28 -11 -3 -9 -13 -14 -20 -11 -8 3 -32 -6 -53 -20 -33 -23 -48 -28
-87 -32 -4 -1 -6 -7 -3 -15 3 -7 -1 -23 -9 -35 -27 -38 -4 -45 33 -9 l34 33
19 -25 c19 -25 19 -25 -3 -43 -15 -13 -17 -17 -5 -14 22 7 88 -13 88 -27 0
-14 -88 -106 -123 -129 -17 -11 -27 -26 -27 -42 l0 -25 940 0 940 0 0 548 0
548 -32 14 -33 13 33 4 32 4 0 2575 0 2574 -630 0 c-346 0 -630 -2 -630 -4 0
-8 22 -73 32 -93 6 -12 27 -28 47 -34 74 -23 160 -96 161 -135 0 -11 -9 -30
-20 -42 l-21 -22 41 -44 c48 -52 67 -110 76 -231 l6 -80 -33 39 c-72 84 -199
207 -208 201 -6 -3 -2 -24 10 -52 11 -26 23 -77 26 -113 7 -84 14 -96 69 -122
25 -11 48 -27 51 -35 3 -7 10 -13 17 -13 6 0 25 -12 41 -26 17 -14 35 -29 41
-32 6 -4 32 -35 58 -69 26 -35 53 -66 59 -70 7 -5 22 -26 34 -48 12 -22 33
-46 48 -53 14 -8 28 -19 29 -25 17 -62 31 -104 37 -112 4 -5 9 -19 12 -30 5
-23 -1 128 -8 197 -3 28 -1 49 5 53 7 4 8 19 5 37 -5 19 -3 28 3 24 5 -3 13
-21 16 -39 3 -18 15 -49 26 -70 11 -20 20 -46 20 -57 0 -10 15 -48 34 -82 41
-75 61 -143 76 -258 7 -47 18 -110 25 -140 18 -74 45 -258 45 -309 0 -41 0
-41 -37 -42 -21 -1 -41 -1 -45 0 -5 0 -8 -4 -8 -10 0 -5 -4 -7 -10 -4 -11 7
-12 -1 -15 -170 -4 -172 -6 -221 -10 -210 -6 15 -34 342 -45 520 -5 88 -17
198 -25 245 -8 47 -19 112 -24 145 l-10 60 5 -75 c3 -41 9 -109 14 -150 5 -41
11 -140 12 -220 l3 -144 -30 -15 c-39 -19 -117 -26 -142 -13 -24 13 -63 5 -63
-14 0 -7 -16 -25 -35 -40 -29 -22 -35 -33 -35 -63 0 -20 9 -54 20 -76 20 -40
28 -72 10 -45 -8 12 -10 11 -10 -7 0 -27 -15 -29 -84 -8 -67 21 -92 38 -99 72
-8 35 -27 62 -33 47 -16 -38 -30 -45 -73 -38 -24 4 -54 17 -68 30 -14 13 -33
26 -43 29 -22 7 -40 47 -40 90 0 19 1 35 3 35 1 0 17 -4 35 -9 20 -6 32 -6 32
0 0 21 22 6 46 -32 l26 -41 19 31 c22 37 25 89 5 116 -11 16 -22 17 -79 12
-71 -7 -101 7 -129 57 -7 13 -21 37 -30 53 -9 16 -18 56 -21 88 -4 58 -5 60
-35 63 -17 2 -36 10 -42 18 -18 21 -30 17 -30 -11 0 -13 14 -40 31 -60 35 -39
35 -41 1 -166 -10 -37 -24 -74 -31 -83 -12 -14 -10 -22 14 -57 l28 -40 -32
-30 c-28 -25 -32 -34 -25 -57 4 -15 9 -44 10 -65 1 -24 11 -49 26 -65 83 -94
64 -165 -36 -132 -49 16 -77 54 -76 104 0 23 -2 64 -6 92 -6 47 -4 53 15 59
11 3 21 10 21 15 0 12 -68 80 -80 80 -6 0 -10 11 -10 25 0 14 6 25 13 25 8 0
24 11 37 25 22 24 23 26 6 44 -10 11 -35 22 -56 26 -21 4 -46 15 -55 25 -16
18 -16 22 2 76 13 39 25 58 37 60 14 2 123 63 145 81 3 2 -1 9 -7 15 -19 19
-14 44 12 56 17 7 27 7 34 0 8 -8 15 -8 24 -1 12 10 73 18 106 14 7 0 12 -15
12 -34 0 -28 5 -35 33 -45 34 -12 117 -6 117 9 0 5 -10 15 -23 24 -13 8 -29
30 -36 50 -10 28 -17 35 -40 35 -28 0 -71 35 -71 58 0 8 -17 12 -45 12 -25 0
-45 5 -45 10 0 6 -11 10 -25 10 -21 0 -25 5 -25 31 0 31 -3 32 -56 12 -6 -2
-21 15 -33 39 -11 24 -21 37 -21 30 0 -6 -11 -22 -25 -34 -13 -11 -29 -36 -36
-55 -7 -22 -17 -33 -29 -33 -26 0 -60 -38 -60 -67 0 -12 9 -39 21 -60 30 -53
23 -120 -18 -166 -16 -19 -40 -55 -53 -81 -32 -66 -56 -73 -140 -41 -78 30
-116 65 -125 118 l-7 38 -57 -7 c-59 -7 -91 -19 -91 -34 0 -13 51 -51 60 -45
5 3 11 1 15 -5 4 -6 11 -7 17 -4 7 4 9 -9 7 -40 -3 -35 -1 -46 10 -46 12 0 12
-3 3 -12 -9 -9 -15 -9 -23 -1 -7 7 -23 8 -47 2 -46 -11 -66 9 -76 76 -7 41
-10 45 -34 45 -22 0 -24 -2 -12 -11 11 -8 7 -9 -17 -5 -43 7 -42 -7 3 -35 32
-20 36 -25 31 -55 -5 -27 -2 -34 15 -40 17 -5 18 -8 6 -20 -10 -11 -28 -12
-79 -6 -85 10 -117 1 -156 -45 -36 -42 -38 -46 -23 -73 8 -16 15 -17 42 -9 50
14 98 11 104 -6 4 -8 15 -15 25 -15 10 0 19 -7 19 -15 0 -19 58 -85 75 -85 29
0 43 106 21 151 -18 36 -21 65 -6 74 15 9 50 -14 50 -33 1 -31 24 -49 71 -55
43 -6 47 -5 42 13 -3 11 0 20 6 20 8 0 8 6 -1 20 -11 17 -8 24 17 50 31 32 58
37 100 18 22 -10 25 -16 20 -37 -9 -37 -21 -48 -58 -55 -18 -4 -27 -10 -21
-14 6 -4 13 -14 16 -23 7 -17 49 -29 100 -29 53 0 95 -27 105 -67 9 -39 -5
-173 -19 -173 -4 0 -8 5 -8 10 0 6 -4 10 -10 10 -19 0 -10 -25 12 -35 14 -6
25 -23 29 -44 6 -28 4 -34 -12 -38 -10 -3 -19 -14 -19 -24 0 -11 -6 -19 -13
-19 -26 0 -37 25 -37 83 0 43 -3 57 -13 54 -6 -2 -27 2 -46 9 -57 24 -79 18
-96 -22 -8 -19 -19 -33 -25 -29 -5 3 -9 -8 -8 -27 1 -39 -13 -68 -57 -121 -26
-30 -33 -49 -39 -99 -7 -69 0 -82 67 -125 34 -22 41 -23 68 -11 16 7 29 19 29
25 0 7 23 37 51 65 29 29 63 69 76 90 29 43 80 69 94 47 13 -20 22 -59 15 -66
-3 -3 -12 0 -20 6 -19 16 -30 -2 -17 -28 17 -31 -23 -159 -62 -199 -30 -31
-32 -37 -29 -95 2 -34 5 -73 8 -87 4 -22 -1 -29 -31 -43 -20 -9 -42 -17 -49
-17 -8 0 -19 -7 -27 -16 -7 -8 -29 -24 -48 -34 -20 -11 -31 -19 -24 -20 7 0
10 -7 7 -15 -8 -21 -49 -19 -121 7 l-63 22 -23 -22 c-13 -12 -31 -22 -40 -22
-10 0 -20 -7 -23 -15 -4 -10 -14 -13 -29 -9 -13 3 -26 1 -29 -5 -12 -19 -22
-12 -39 25 -13 26 -23 35 -36 31 -10 -2 -26 2 -36 9 -10 8 -28 14 -39 14 -27
0 -96 78 -96 108 0 13 -4 20 -10 17 -6 -4 -10 11 -10 37 0 71 -54 169 -151
274 -46 51 -95 114 -109 140 l-25 49 2 425 c1 234 5 452 8 485 3 33 2 85 -2
115 l-8 55 -50 3 c-27 2 -53 8 -56 14 -10 16 -254 17 -269 2 -29 -29 -48 -175
-33 -247 7 -28 5 -89 -3 -177 -7 -74 -16 -238 -19 -365 -4 -167 -10 -243 -21
-277 -9 -27 -19 -48 -23 -48 -11 0 -49 174 -65 300 -22 159 -31 493 -16 530 7
16 16 30 21 30 5 0 9 7 9 15 0 9 10 29 21 44 26 36 18 51 -25 51 l-34 0 -4 63
c-3 34 0 75 5 91 10 28 4 157 -9 190 -3 9 -14 16 -23 16 -9 0 -22 5 -27 10
-12 12 -213 15 -269 4 -28 -5 -36 -12 -41 -33 -3 -14 -10 -36 -15 -49 -12 -31
-12 -114 1 -148 8 -20 8 -56 -1 -123 -6 -53 -13 -99 -15 -103 -5 -7 -73 20
-84 33 -3 3 -17 9 -32 13 -43 10 -137 117 -138 157 0 29 32 81 86 136 l54 54
-29 30 c-17 16 -33 38 -36 49 -4 11 -12 17 -21 13 -8 -3 -14 1 -14 11 0 9 -4
16 -10 16 -5 0 -10 -4 -10 -9 0 -15 -60 -26 -127 -22 -51 2 -66 -1 -91 -19
-35 -26 -72 -103 -70 -146 0 -16 -5 -66 -12 -112 -11 -73 -10 -85 4 -107 14
-22 24 -25 76 -25 32 0 62 -4 65 -10 14 -23 103 -64 164 -76 140 -27 131 -21
180 -114 42 -80 45 -90 49 -182 9 -191 -59 -495 -181 -818 -25 -68 -71 -168
-63 -138 6 19 -12 16 -52 -10 -12 -8 -22 -11 -22 -8 0 4 -10 0 -22 -8 -12 -9
-34 -16 -48 -16 -15 0 -52 -14 -83 -31 -52 -28 -58 -29 -73 -15 -8 9 -22 16
-31 16 -8 0 -26 9 -40 20 -14 11 -41 22 -62 26 -20 4 -50 15 -67 25 -17 10
-66 24 -110 30 -43 6 -95 20 -115 31 -37 21 -101 21 -224 2 -71 -12 -227 -8
-269 6 -20 6 -44 22 -55 36 -10 13 -28 24 -39 24 -25 0 -71 19 -90 37 -7 7
-20 13 -28 13 -17 0 -19 42 -3 73 6 12 29 40 50 62 42 44 59 95 37 111 -20 15
-87 36 -96 30 -5 -3 -32 -6 -60 -7 -29 -2 -52 -7 -52 -11 0 -5 -5 -6 -10 -3
-6 3 -14 -4 -19 -17 -8 -21 -9 -21 -19 12 -29 90 -64 305 -73 453 -5 89 -12
297 -14 462 -2 165 -8 314 -12 330 l-9 30 -172 3 c-169 2 -171 2 -183 -20 -9
-17 -13 -150 -14 -508 -2 -466 -11 -639 -26 -495 -3 33 -13 86 -22 117 -9 32
-14 64 -11 73 4 9 -6 29 -25 50 -37 42 -59 112 -71 225 -5 47 -14 101 -20 120
-5 19 -10 53 -10 75 0 22 -18 92 -41 155 -65 183 -87 332 -56 372 26 35 125
91 187 107 53 13 115 16 340 14 l276 -2 15 36 c12 27 14 46 7 72 -5 20 -14 54
-19 76 -6 22 -9 74 -7 115 3 65 10 88 51 172 48 97 96 153 140 162 12 3 40 4
62 3 34 -2 41 2 52 24 9 18 37 38 81 60 79 38 150 42 191 11 25 -18 26 -24 26
-118 0 -54 -3 -117 -8 -139 -7 -38 -5 -42 26 -65 37 -27 62 -72 53 -96 -3 -8
3 -23 14 -34 11 -11 20 -23 20 -28 0 -13 -58 -62 -74 -62 -9 0 -16 -4 -16 -10
0 -5 7 -10 16 -10 8 0 13 -4 9 -10 -12 -19 77 -32 181 -25 95 7 106 6 150 -16
26 -13 59 -34 72 -46 13 -12 32 -25 42 -28 9 -3 22 -17 28 -30 13 -27 35 -31
79 -14 49 19 113 27 149 19 36 -8 44 0 18 20 -8 8 -22 27 -30 44 -8 17 -22 44
-31 61 -14 25 -14 38 -5 85 16 73 15 100 -1 100 -8 0 -36 11 -63 25 -27 14
-56 25 -64 25 -9 0 -26 7 -38 16 -13 9 -52 20 -86 24 -48 6 -69 14 -89 34 -14
14 -23 26 -19 26 4 0 1 4 -7 9 -12 8 -12 12 -2 25 10 12 9 20 -7 43 -62 92
-80 122 -97 158 -10 22 -33 63 -51 91 -19 28 -34 56 -34 63 0 8 -58 11 -206
11 l-206 0 -60 -55 c-52 -49 -64 -55 -102 -55 -44 0 -71 20 -111 83 l-17 27
-3159 0 -3159 0 0 -3140z m5985 2878 c31 -7 59 -21 74 -37 23 -24 23 -27 9
-66 -22 -59 -109 -157 -155 -175 -51 -20 -143 39 -173 110 -28 68 18 135 113
164 52 16 69 17 132 4z m-1596 -194 c10 -3 4 -11 -18 -25 -28 -17 -32 -24 -27
-45 9 -35 -9 -55 -43 -47 -43 10 -81 33 -81 48 0 7 -10 21 -21 29 -39 27 -17
45 56 44 36 0 68 2 71 5 5 5 31 1 63 -9z m33 -254 c-4 -76 -14 -92 -51 -84
-29 7 -81 58 -81 79 0 7 12 28 26 45 23 27 32 31 68 28 l41 -3 -3 -65z m-204
-2 c2 -23 -3 -47 -12 -60 -9 -12 -16 -32 -16 -45 0 -12 -5 -25 -10 -28 -7 -4
-10 6 -10 27 0 18 -2 48 -6 65 -10 51 2 85 29 81 18 -2 23 -11 25 -40z m74
-81 c11 -17 10 -24 -8 -41 -20 -20 -27 -20 -46 2 -19 22 -28 48 -20 57 10 10
65 -3 74 -18z m7544 -153 c4 -21 2 -46 -5 -61 -10 -21 -9 -28 1 -34 10 -6 8
-14 -9 -31 -23 -23 -31 -16 -13 12 10 16 -14 50 -37 50 -19 0 -16 27 4 34 15
6 15 8 3 17 -12 8 -10 10 8 6 19 -4 22 -2 17 14 -7 22 2 42 15 34 5 -3 12 -22
16 -41z m-6582 6 c21 -22 39 -176 24 -203 -10 -19 -9 -20 4 -9 22 17 35 -2 36
-53 1 -29 8 -46 26 -62 43 -37 66 -92 66 -158 1 -88 14 -135 50 -168 49 -46
63 -72 51 -96 -6 -11 -10 -26 -9 -33 2 -7 -15 -15 -44 -19 -26 -4 -52 -10 -58
-14 -5 -3 -17 0 -25 8 -18 19 -86 32 -94 18 -4 -6 -62 -13 -130 -17 -75 -4
-124 -11 -126 -18 -2 -6 -6 -24 -10 -39 -7 -34 -30 -31 -31 4 -2 42 -3 43 -29
19 l-25 -23 0 22 c0 13 -12 37 -27 55 l-26 31 59 6 c32 4 112 7 176 8 64 1
123 4 132 7 10 4 16 18 16 39 0 32 -2 34 -32 30 -92 -11 -122 -12 -199 -4 -71
7 -87 12 -105 33 l-22 24 -12 -58 c-11 -54 -15 -59 -52 -76 -26 -12 -44 -15
-52 -8 -7 5 -34 24 -59 43 -26 19 -47 38 -47 43 0 4 -13 22 -29 41 -24 27 -29
41 -28 79 2 54 -16 80 -52 76 -20 -2 -27 -10 -31 -33 -5 -30 -5 -30 -23 15
-24 63 -21 110 8 169 53 105 121 109 134 8 l6 -42 63 -6 c43 -4 73 -13 94 -29
30 -22 32 -22 44 -5 13 17 14 17 21 -1 6 -16 8 -14 15 11 5 17 11 55 14 85 3
36 10 57 21 64 14 8 14 10 -5 25 -15 12 -21 29 -23 68 -2 29 0 56 4 59 4 4 7
27 7 50 0 53 0 53 182 50 107 -1 141 -5 152 -16z m-1989 -5 c0 -5 -10 -11 -22
-13 -16 -2 -23 2 -23 13 0 11 7 15 23 13 12 -2 22 -7 22 -13z m1071 -110 c2
-117 13 -245 28 -345 8 -52 18 -126 22 -165 7 -76 16 -102 45 -125 22 -18 32
-60 20 -80 -6 -9 -26 -14 -53 -15 -34 0 -43 -4 -46 -19 -2 -10 2 -23 10 -28
10 -7 10 -11 1 -15 -7 -2 -13 -15 -13 -28 0 -13 -5 -27 -11 -31 -8 -5 -9 -74
-4 -248 7 -246 2 -296 -29 -296 -33 0 -39 40 -41 289 -1 135 -5 255 -10 265
-6 13 -3 22 7 30 25 18 5 95 -25 96 -7 1 -25 11 -41 24 -25 21 -28 28 -22 60
4 21 15 45 25 55 20 20 25 47 42 211 6 58 16 111 21 118 6 6 22 12 35 12 l25
0 -23 19 c-23 18 -24 28 -29 151 -3 72 -3 134 0 136 2 3 18 4 35 2 l30 -3 1
-70z m-1060 55 c26 -10 26 -11 8 -25 -23 -17 -48 -19 -76 -4 -21 11 -21 12 3
25 30 16 31 16 65 4z m8254 -122 c0 -11 46 -111 58 -128 2 -2 7 2 12 10 7 12
10 12 16 -3 3 -10 4 -20 1 -24 -3 -3 0 -12 8 -20 8 -8 15 -26 16 -41 0 -24 1
-25 9 -7 7 15 9 10 9 -23 1 -29 -5 -49 -18 -64 -16 -17 -19 -30 -14 -72 3 -28
11 -57 18 -65 11 -11 14 -8 20 18 8 38 19 45 44 31 16 -8 22 -6 31 10 9 16 15
18 36 10 28 -11 63 2 65 23 1 7 3 46 3 87 1 41 0 63 -2 48 -2 -16 -8 -28 -14
-28 -11 0 -1 80 13 94 5 6 9 20 9 32 0 13 4 25 9 28 11 7 23 -22 15 -36 -3 -5
2 -18 12 -29 16 -18 16 -25 6 -65 -7 -27 -12 -118 -12 -230 l0 -187 35 -86
c33 -83 34 -90 24 -150 -5 -35 -17 -80 -25 -100 -14 -34 -16 -35 -29 -18 -12
17 -14 15 -19 -25 -2 -23 -10 -159 -16 -301 -16 -384 -42 -629 -95 -905 -28
-142 -100 -380 -121 -402 -14 -13 -17 -13 -30 5 -13 17 -15 48 -11 190 4 157
10 237 38 585 9 119 31 701 32 880 1 98 -17 355 -32 450 -16 112 -59 295 -100
435 -18 60 -21 85 -11 85 5 0 10 -6 10 -12z m127 -180 c-3 -8 -6 -5 -6 6 -1
11 2 17 5 13 3 -3 4 -12 1 -19z m-6726 -735 c-8 -14 -10 -8 -11 29 0 67 14 96
18 36 2 -26 -2 -56 -7 -65z m139 25 c0 -31 -3 -39 -11 -31 -7 7 -8 24 -4 42 9
43 15 39 15 -11z m516 22 c26 -17 35 -31 43 -71 17 -76 14 -169 -7 -209 -34
-69 -112 -97 -185 -67 -18 8 -37 12 -43 10 -23 -8 -94 217 -94 296 0 40 1 41
28 36 82 -16 99 -15 147 4 63 25 71 25 111 1z m-2376 -40 c0 -22 -4 -40 -10
-40 -11 0 -14 63 -3 73 11 12 13 8 13 -33z m2707 -92 c-3 -8 -6 -5 -6 6 -1 11
2 17 5 13 3 -3 4 -12 1 -19z m43 -106 c-6 -21 -8 -13 -8 33 0 51 1 55 8 27 4
-19 4 -46 0 -60z m4793 22 c26 -37 27 -44 19 -90 -5 -29 -13 -48 -20 -46 -7 1
-12 -2 -12 -7 0 -5 -7 -11 -14 -14 -10 -4 -13 -1 -9 9 3 9 0 14 -8 12 -8 -2
-14 7 -15 20 -1 13 -11 33 -22 45 -34 37 -38 74 -11 97 34 28 59 21 92 -26z
m-7716 -36 c-3 -7 -5 -2 -5 12 0 14 2 19 5 13 2 -7 2 -19 0 -25z m225 -35 c5
-27 16 -145 25 -264 l17 -216 -23 -36 c-12 -21 -27 -37 -32 -37 -5 0 -9 30 -9
68 0 37 -2 85 -5 107 -4 32 -3 35 4 15 9 -25 9 6 -4 276 -7 146 7 191 27 87z
m1858 -113 c16 -143 9 -382 -10 -405 -11 -13 -15 -14 -21 -3 -11 20 -15 531
-5 547 15 23 23 -8 36 -139z m3157 103 c-3 -10 -5 -2 -5 17 0 19 2 27 5 18 2
-10 2 -26 0 -35z m-2259 -180 c35 -187 56 -395 57 -573 0 -93 -4 -123 -19
-157 -11 -24 -23 -43 -26 -43 -4 0 -10 42 -16 94 -5 52 -6 92 -1 89 17 -10 23
49 16 162 -4 66 -8 143 -8 170 -2 46 -3 49 -16 31 -15 -19 -15 -19 -15 2 0 12
-5 22 -11 22 -16 0 -5 90 11 100 10 6 11 29 7 89 -7 93 5 100 21 14z m-211 10
c-3 -10 -5 -4 -5 12 0 17 2 24 5 18 2 -7 2 -21 0 -30z m2304 -4 c-5 -13 -10
-19 -10 -12 -1 15 10 45 15 40 3 -2 0 -15 -5 -28z m176 -61 c-2 -13 -4 -3 -4
22 0 25 2 35 4 23 2 -13 2 -33 0 -45z m581 30 c16 -16 15 -49 -3 -72 -13 -18
-14 -17 -19 5 -16 71 -7 96 22 67z m-523 -153 c6 -71 4 -103 -6 -128 -13 -30
-14 -22 -20 113 -8 206 11 217 26 15z m2266 87 c-6 -2 -11 -10 -11 -18 0 -9
-5 -12 -10 -9 -7 4 -7 12 0 24 5 10 6 22 2 27 -4 5 1 2 12 -6 10 -8 14 -16 7
-18z m-6361 -29 c0 -31 -10 -53 -25 -53 -28 0 -34 60 -9 85 20 19 34 6 34 -32z
m4037 -235 c-1 -40 -3 -10 -3 67 0 77 1 110 3 73 2 -37 2 -100 0 -140z m2434
129 c19 -12 40 -36 48 -51 12 -25 11 -33 -3 -57 -19 -32 -21 -73 -5 -118 13
-38 2 -57 -43 -66 -26 -6 -34 -2 -63 29 -23 25 -31 43 -28 59 3 14 -2 29 -11
36 -14 11 -24 11 -61 -4 -25 -9 -45 -21 -45 -26 0 -12 -57 -11 -81 1 -24 13
-65 -13 -73 -47 -6 -23 -46 -40 -65 -28 -12 7 -14 64 -3 81 4 7 24 10 46 9 35
-3 38 -2 33 21 -2 13 2 29 9 35 8 6 14 17 14 24 0 8 12 27 26 44 28 33 51 34
124 4 34 -14 35 -14 65 20 27 31 61 56 76 57 3 0 21 -10 40 -23z m-4744 -244
c-1 -49 -3 -9 -3 87 0 96 2 136 3 88 2 -49 2 -127 0 -175z m-3057 158 c0 -11
-4 -23 -10 -26 -6 -4 -10 5 -10 19 0 14 5 26 10 26 6 0 10 -9 10 -19z m5960
-25 c0 -8 13 -23 29 -32 35 -20 35 -60 2 -105 -26 -35 -37 -36 -69 -6 l-24 22
4 -24 c1 -13 -3 -26 -9 -28 -8 -3 -13 4 -13 15 0 21 18 44 46 60 12 7 13 13 4
33 -8 17 -8 33 -1 52 11 29 31 37 31 13z m-3353 -28 c-3 -8 -6 -5 -6 6 -1 11
2 17 5 13 3 -3 4 -12 1 -19z m10 -40 c-3 -8 -6 -5 -6 6 -1 11 2 17 5 13 3 -3
4 -12 1 -19z m-503 -75 c-5 -14 -14 -28 -21 -30 -17 -6 -25 31 -13 62 10 27
12 27 27 12 13 -13 15 -23 7 -44z m-1849 27 c9 -15 -5 -71 -16 -64 -12 7 -12
74 0 74 6 0 13 -5 16 -10z m1126 -27 c72 -7 83 -18 32 -32 -47 -13 -115 -14
-162 -1 -20 5 -49 12 -65 15 -62 13 20 37 97 29 21 -3 65 -7 98 -11z m622 -50
c-3 -7 -9 -13 -14 -13 -11 0 -12 44 -2 54 9 9 22 -25 16 -41z m6303 38 c15 -1
20 -7 20 -23 -1 -18 4 -22 22 -21 12 2 22 -1 22 -5 0 -4 15 -13 33 -20 17 -8
46 -21 63 -29 21 -11 43 -14 70 -9 21 4 50 7 64 7 42 -1 75 9 62 18 -10 6 -9
11 3 21 13 11 15 9 15 -16 0 -44 -11 -74 -26 -74 -7 0 -18 -9 -24 -20 -6 -11
-15 -18 -21 -15 -5 4 -25 -6 -43 -22 -19 -15 -55 -41 -80 -56 -43 -27 -52 -28
-109 -22 -34 4 -79 15 -100 26 -21 10 -49 19 -64 19 -37 0 -129 72 -153 120
-39 77 -19 132 41 111 43 -15 91 -14 124 3 15 8 34 13 43 11 9 -2 26 -4 38 -4z
m-8156 -23 c0 -16 -3 -19 -11 -11 -6 6 -8 16 -5 22 11 17 16 13 16 -11z m5407
16 c-3 -3 -12 -4 -19 -1 -8 3 -5 6 6 6 11 1 17 -2 13 -5z m-2013 -135 c4 -26
2 -23 -13 16 -11 28 -20 57 -20 65 0 23 26 -42 33 -81z m2316 81 c0 -5 -4 -10
-10 -10 -5 0 -10 5 -10 10 0 6 5 10 10 10 6 0 10 -4 10 -10z m1767 -26 c17
-35 17 -36 -7 -55 -23 -17 -52 -27 -37 -12 4 3 3 11 -2 17 -5 6 -11 28 -15 49
-7 35 -5 37 19 37 19 0 29 -8 42 -36z m-4566 -57 c-6 -6 -12 -34 -12 -61 -1
-28 -4 -40 -6 -27 -3 14 -2 54 2 90 7 60 9 63 17 38 7 -20 7 -32 -1 -40z
m1985 5 c-11 -10 -14 3 -8 33 l7 30 3 -28 c2 -16 1 -31 -2 -35z m-3246 -21 c0
-53 -13 -121 -21 -115 -10 6 -12 114 -3 138 9 24 24 9 24 -23z m932 -51 c3
-16 1 -30 -4 -30 -4 0 -8 14 -8 30 0 17 2 30 4 30 2 0 6 -13 8 -30z m2597 -72
c1 -16 -3 -28 -8 -28 -12 0 -20 47 -13 73 5 20 6 20 13 1 4 -10 8 -31 8 -46z
m-2542 -30 c-3 -8 -6 -5 -6 6 -1 11 2 17 5 13 3 -3 4 -12 1 -19z m2443 -13 c0
-8 -4 -17 -10 -20 -6 -4 -10 5 -10 20 0 15 4 24 10 20 6 -3 10 -12 10 -20z
m295 -6 c55 -5 254 -9 442 -8 189 1 345 0 347 -2 5 -4 -19 -816 -33 -1112 -4
-104 -13 -193 -18 -198 -26 -26 -447 -38 -663 -18 -128 11 -233 33 -269 56
l-24 15 7 167 c11 289 16 331 37 331 20 0 24 10 10 26 -5 5 -5 18 -1 29 6 18
9 17 24 -13 23 -44 33 -33 16 17 -7 23 -23 45 -37 52 l-25 14 6 215 c3 118 7
268 8 333 l1 118 36 -6 c20 -3 81 -10 136 -16z m-2500 -126 c-8 -27 -8 -27
-17 15 -5 24 -6 51 -2 60 11 27 28 -41 19 -75z m4790 66 c5 -5 17 -9 27 -9 10
0 18 -4 18 -9 0 -4 11 -6 25 -3 18 3 26 -1 31 -14 3 -11 9 -26 14 -34 17 -35
-49 -78 -86 -56 -72 42 -127 125 -91 139 14 6 48 -2 62 -14z m-4238 -46 c-3
-10 -5 -4 -5 12 0 17 2 24 5 18 2 -7 2 -21 0 -30z m1136 20 c13 -8 7 -31 -17
-60 -21 -25 -32 -29 -75 -30 -50 -1 -51 0 -60 35 -7 23 -7 41 0 54 10 18 17
19 77 13 37 -4 70 -9 75 -12z m-2748 -13 c145 -11 432 -12 498 -1 32 5 47 4
48 -3 4 -63 -1 -619 -5 -623 -3 -4 -6 6 -6 21 0 24 -3 26 -22 20 -13 -4 -32
-8 -43 -9 -43 -2 -66 -17 -72 -46 -8 -40 -23 -37 -23 6 0 32 -2 34 -32 33 -18
0 -48 -2 -65 -5 -31 -4 -33 -6 -33 -43 0 -29 -4 -40 -15 -40 -15 0 -17 5 -19
49 -1 13 -7 26 -14 29 -10 3 -12 -7 -10 -39 3 -43 4 -44 38 -44 19 0 40 -3 45
-6 8 -5 138 2 253 13 6 1 12 6 12 12 0 6 4 6 11 -1 8 -8 9 -64 3 -189 -4 -99
-10 -171 -12 -161 -2 9 -6 17 -9 17 -3 0 -12 -8 -19 -17 -12 -16 -15 -16 -23
-3 -6 8 -6 17 -1 20 20 12 -28 48 -66 50 -56 3 -64 1 -64 -11 0 -6 6 -9 14 -6
19 8 38 -16 30 -37 -8 -20 -24 -21 -24 0 0 11 -6 14 -21 9 -20 -7 -21 -5 -14
21 19 69 20 68 -89 74 -88 5 -100 8 -114 28 -22 33 -89 31 -117 -4 -21 -26
-21 -26 -101 -16 -52 7 -82 7 -89 1 -24 -23 6 -28 313 -45 61 -4 112 -10 112
-15 0 -5 -15 -9 -34 -9 -19 0 -38 -4 -41 -10 -3 -5 0 -10 8 -10 8 0 17 -7 21
-15 3 -8 12 -15 19 -15 8 0 20 -7 27 -15 10 -12 9 -15 -6 -16 -11 -1 -27 0
-37 1 -19 2 -47 -16 -47 -30 0 -4 6 -7 13 -7 6 1 28 -2 49 -7 43 -9 60 -43 25
-51 -84 -17 -315 -8 -422 16 -51 12 -131 48 -107 49 13 0 17 42 5 54 -4 4 -6
23 -4 42 1 21 -2 34 -9 34 -9 0 -11 17 -6 63 8 78 7 69 5 151 -2 63 0 70 20
77 11 5 28 6 37 2 14 -5 16 -1 12 25 -3 22 0 32 9 32 8 0 13 -13 13 -35 0 -19
5 -35 10 -35 6 0 10 13 10 28 0 15 5 33 12 40 13 13 -5 23 -49 25 -16 1 -34 7
-40 14 -7 6 -18 13 -25 15 -9 3 -12 72 -11 275 0 149 4 277 8 283 6 9 28 11
84 6 42 -4 130 -11 196 -16z m6100 -11 c0 -9 -12 -15 -32 -17 -27 -3 -33 0
-33 16 0 10 3 21 6 24 10 11 59 -8 59 -23z m-5146 -21 c-1 -31 -1 -31 -8 -8
-5 14 -6 28 -4 33 9 15 13 6 12 -25z m-3074 2 c93 -22 449 -33 675 -20 l85 5
0 -580 0 -579 -40 -9 c-49 -12 -479 -15 -517 -4 -16 4 -28 14 -28 22 0 16 -34
38 -43 28 -8 -8 -67 17 -67 28 0 5 7 9 16 9 8 0 12 5 9 10 -4 6 -12 9 -18 8
-22 -4 -74 31 -81 54 -3 13 -6 41 -6 63 0 22 -4 35 -8 29 -4 -7 -7 33 -7 89 0
91 2 101 20 108 19 8 19 8 -2 15 -13 3 -23 14 -23 25 0 20 24 26 35 9 12 -19
25 1 25 38 0 26 3 33 9 22 6 -8 7 -26 4 -40 -4 -24 -2 -27 24 -27 26 0 29 4
27 29 -2 32 -14 52 -14 25 0 -10 -5 -17 -11 -17 -7 0 -9 9 -5 23 5 20 0 24
-40 36 -52 16 -81 51 -41 51 14 0 30 7 37 15 11 13 8 16 -19 21 -17 4 -34 11
-37 16 -10 15 -17 508 -8 508 5 0 27 -5 49 -10z m4950 -209 c-6 -31 -7 -32
-20 -15 -19 25 -19 65 0 100 8 16 16 43 17 59 1 17 4 -1 6 -40 2 -38 0 -85 -3
-104z m368 -88 l157 -6 0 -127 c0 -70 -3 -130 -6 -133 -10 -10 -64 32 -64 50
0 8 9 17 20 20 26 7 26 30 1 38 -15 4 -21 17 -23 48 -3 41 -4 42 -40 45 -29 2
-38 0 -38 -12 0 -9 7 -16 15 -16 12 0 15 -15 15 -75 0 -70 -1 -75 -24 -81 -13
-3 -36 -19 -52 -35 -15 -16 -33 -29 -40 -29 -19 0 -24 -27 -7 -42 9 -7 24 -31
33 -53 27 -61 53 -80 114 -80 28 0 59 4 69 9 17 8 18 4 13 -55 -9 -102 -17
-139 -29 -139 -7 0 -6 -4 2 -9 11 -7 16 -39 19 -122 3 -77 1 -110 -6 -105 -6
3 -31 9 -56 12 -42 5 -47 3 -58 -22 l-12 -26 -99 7 c-92 6 -99 6 -95 -12 4
-21 67 -30 224 -32 l92 -1 1 -65 c1 -62 0 -65 -24 -65 -13 0 -27 5 -30 10 -10
15 -35 12 -35 -5 0 -10 14 -17 40 -21 36 -6 40 -10 40 -35 0 -29 0 -29 -62
-29 -76 0 -266 25 -276 35 -4 4 7 5 23 1 24 -6 28 -5 18 5 -7 7 -13 26 -13 41
0 20 -5 28 -17 28 -14 1 -12 4 7 15 l25 15 -22 6 c-26 7 -28 15 -11 32 9 9 8
12 -6 12 -12 0 -16 5 -12 15 3 8 9 23 12 33 5 14 4 15 -5 2 -9 -12 -11 -11
-11 8 0 13 -3 21 -7 19 -5 -3 -6 15 -4 39 2 27 -1 44 -8 44 -19 0 -12 32 9 37
25 7 26 20 3 26 -10 3 8 5 40 4 49 0 57 -3 57 -19 0 -10 5 -18 10 -18 6 0 10
9 10 20 0 11 5 20 10 20 6 0 10 -9 10 -20 0 -11 5 -20 11 -20 6 0 9 12 7 28
-3 25 -7 27 -48 28 -84 2 -90 3 -90 22 0 14 -2 15 -10 2 -8 -13 -11 -13 -22
-1 -10 10 -10 12 0 7 15 -9 16 6 0 22 -9 9 -9 12 0 12 7 0 12 -3 12 -7 0 -5
14 -9 30 -10 29 -2 30 0 30 37 0 22 5 40 11 40 6 0 9 -16 8 -40 -4 -48 7 -62
28 -35 15 20 15 20 11 0 -5 -19 -1 -20 59 -15 35 3 70 2 79 -3 17 -10 44 -3
44 12 0 5 -8 7 -19 4 -24 -6 -35 11 -27 43 5 19 11 24 26 19 12 -4 20 -2 20 5
0 7 -13 10 -32 8 -29 -3 -33 -7 -36 -35 -3 -27 -7 -33 -28 -33 -15 0 -24 6
-24 15 0 8 4 14 9 13 5 -2 9 2 9 7 0 6 -4 9 -9 7 -5 -1 -9 3 -9 8 0 6 6 10 13
8 7 -2 15 2 17 7 3 6 -9 11 -25 13 -30 3 -30 3 -26 -44 2 -34 0 -45 -8 -39 -7
4 -10 18 -6 34 8 38 -17 58 -85 66 -50 6 -80 15 -52 15 7 0 12 5 12 10 0 7 -6
7 -20 0 -12 -7 -20 -7 -20 -1 0 12 37 24 50 16 5 -3 45 -7 90 -9 l80 -3 0 28
c0 24 -4 29 -25 29 -19 0 -25 -5 -26 -22 -1 -23 -1 -23 -8 1 -7 27 -29 36 -86
36 -30 0 -45 6 -58 23 -17 21 -18 31 -9 130 6 58 7 109 3 112 -7 4 -15 81 -26
229 l-2 34 61 -7 c34 -3 132 -9 219 -13z m-2393 -53 c158 -10 627 2 665 16 8
3 17 0 19 -7 8 -27 27 -1222 19 -1230 -17 -16 -228 -31 -448 -31 -228 0 -360
11 -432 36 l-38 13 -1 59 c0 32 -4 149 -7 259 -4 110 -9 359 -12 554 l-5 354
38 -7 c20 -3 111 -11 202 -16z m2020 -45 c11 -7 14 -232 4 -259 -5 -12 -10
-13 -25 -5 -11 5 -30 9 -42 7 -21 -3 -22 0 -20 56 1 33 7 64 13 70 19 19 11
52 -15 64 -28 13 -32 30 -12 54 18 24 68 31 97 13z m1652 1 c43 7 50 -1 55
-67 6 -75 -61 -191 -102 -176 -12 5 -15 28 -15 133 0 103 2 124 13 116 7 -7
29 -9 49 -6z m-1904 -145 c36 -31 22 -91 -21 -91 -44 0 -58 35 -35 85 13 30
25 31 56 6z m-5389 -45 c9 -10 7 -17 -5 -27 -18 -15 -74 -19 -74 -6 0 9 -40 5
-58 -7 -8 -5 -18 -4 -24 2 -7 7 -3 14 13 22 56 31 129 39 148 16z m3161 -26
c0 -10 -10 -24 -21 -31 -17 -9 -20 -8 -15 3 3 7 9 21 12 31 8 23 24 22 24 -3z
m110 -6 c0 -8 -4 -14 -10 -14 -5 0 -10 9 -10 21 0 11 5 17 10 14 6 -3 10 -13
10 -21z m2854 5 c36 -28 37 -89 1 -113 -54 -35 -125 -2 -125 59 0 12 9 34 21
49 25 32 66 34 103 5z m-2794 -9 c0 -5 -4 -10 -10 -10 -5 0 -10 5 -10 10 0 6
5 10 10 10 6 0 10 -4 10 -10z m2427 -192 c-3 -8 -6 -5 -6 6 -1 11 2 17 5 13 3
-3 4 -12 1 -19z m40 -165 c-3 -10 -5 -2 -5 17 0 19 2 27 5 18 2 -10 2 -26 0
-35z m93 19 c0 -15 -2 -15 -10 -2 -13 20 -13 33 0 25 6 -3 10 -14 10 -23z
m-4020 -7 c0 -8 -5 -15 -12 -15 -9 0 -9 -3 -1 -11 8 -8 17 -8 32 0 22 12 56 2
63 -19 1 -5 39 -13 83 -16 103 -9 125 -17 118 -43 -4 -15 2 -24 21 -32 14 -7
26 -16 26 -21 0 -22 -22 -48 -40 -48 -11 0 -20 -4 -20 -10 0 -14 -75 -32 -104
-24 -14 3 -71 7 -128 8 -98 2 -218 28 -218 47 0 4 16 13 35 20 19 7 35 18 35
25 0 16 -27 37 -39 30 -17 -11 -38 5 -36 27 1 12 3 28 4 35 1 11 46 10 58 -2
3 -2 24 3 49 11 31 11 44 20 44 34 0 10 7 19 15 19 8 0 15 -7 15 -15z m5819
-29 c7 -8 11 -37 9 -68 l-3 -53 -58 -1 c-47 0 -57 2 -55 15 2 9 12 16 23 16
17 0 20 6 18 45 -1 26 3 47 10 52 19 12 43 9 56 -6z m-4523 -23 c-10 -10 -19
5 -10 18 6 11 8 11 12 0 2 -7 1 -15 -2 -18z m-46 -3 c0 -5 -5 -10 -11 -10 -5
0 -7 5 -4 10 3 6 8 10 11 10 2 0 4 -4 4 -10z m217 -32 c-3 -7 -5 -2 -5 12 0
14 2 19 5 13 2 -7 2 -19 0 -25z m4457 -64 c21 -8 21 -34 0 -34 -21 0 -54 18
-54 30 0 11 30 13 54 4z m-4558 -45 c51 -35 53 -54 4 -54 -28 0 -39 7 -57 34
-22 32 -23 51 -2 51 6 0 31 -14 55 -31z m4056 -9 c35 -34 89 -41 114 -15 11
10 24 13 42 8 31 -8 41 -8 104 2 32 5 63 3 100 -8 163 -48 199 -57 230 -57 40
0 65 -20 107 -83 18 -27 45 -53 59 -58 15 -6 45 -27 67 -48 22 -21 48 -43 58
-48 10 -5 25 -25 35 -43 9 -19 28 -40 40 -46 13 -7 34 -28 45 -47 12 -19 42
-52 67 -72 25 -21 52 -47 60 -59 20 -29 69 -76 79 -76 5 0 11 -14 15 -30 6
-34 47 -80 71 -80 24 0 20 66 -5 80 -11 6 -17 16 -14 25 11 27 -6 63 -49 108
-23 24 -51 59 -62 77 -44 74 -62 98 -102 139 -23 23 -45 51 -48 61 -3 10 -24
23 -51 30 -34 10 -49 20 -56 39 -27 68 -61 130 -74 135 -18 7 -18 36 1 36 37
0 64 -25 94 -86 45 -93 121 -126 121 -53 0 35 -7 34 110 7 67 -16 80 -24 80
-48 0 -12 10 -21 28 -25 16 -3 50 -25 76 -48 29 -27 64 -47 94 -55 26 -7 66
-22 90 -34 34 -17 42 -26 42 -47 0 -19 9 -32 29 -44 36 -21 55 -22 71 -2 18
22 35 19 74 -16 20 -17 48 -34 63 -38 27 -7 41 -39 14 -33 -20 4 -52 -8 -46
-18 7 -11 69 6 73 20 5 13 49 13 58 -1 3 -6 1 -16 -5 -22 -7 -7 -7 -14 0 -24
7 -7 8 -13 5 -13 -4 0 5 -11 18 -25 24 -24 29 -25 68 -15 44 12 108 6 108 -11
0 -6 4 -8 9 -5 13 8 42 -4 36 -15 -3 -4 -12 -6 -20 -2 -8 3 -15 0 -15 -6 0 -6
11 -11 25 -11 18 0 23 -4 19 -15 -4 -9 0 -15 7 -16 29 -2 -38 -17 -79 -18 -30
-1 -42 -5 -39 -13 2 -7 11 -11 18 -9 8 3 26 5 42 4 15 0 27 4 27 8 0 17 46 9
68 -11 12 -11 26 -20 32 -20 5 0 10 -4 10 -9 0 -11 -43 -1 -52 12 -4 6 -13 3
-23 -7 -14 -14 -30 -16 -79 -13 -33 2 -48 2 -33 0 16 -2 26 -10 24 -16 -5 -15
-59 -27 -132 -29 -59 -1 -59 -1 -30 -14 l30 -13 -35 4 c-19 2 -43 4 -52 4 -10
1 -18 5 -18 10 0 12 55 25 93 22 15 -1 27 3 27 8 0 14 -41 18 -73 8 -26 -9
-38 -8 -82 8 -20 7 -20 6 -1 -9 20 -16 20 -16 0 -18 -10 0 -27 0 -37 0 -12 1
-16 -2 -11 -10 5 -8 2 -9 -9 -5 -10 3 -17 2 -17 -3 0 -6 -8 -10 -17 -10 -17
-1 -17 -1 0 -11 26 -15 80 -16 95 -2 9 9 18 9 39 -2 15 -8 38 -12 50 -9 29 8
31 -16 3 -34 -16 -10 -20 -10 -20 2 0 15 -56 33 -67 22 -4 -3 1 -6 10 -6 9 0
17 -3 17 -8 0 -4 -17 -6 -39 -4 -21 2 -42 -1 -45 -7 -4 -6 -17 -11 -29 -12
-21 0 -21 -1 -2 -9 11 -5 29 -8 40 -8 17 0 17 1 2 5 -9 2 -15 9 -12 14 9 14
35 11 35 -5 0 -11 15 -14 60 -15 33 0 60 3 60 7 0 12 79 7 92 -6 6 -6 23 -12
37 -12 14 0 52 -8 85 -17 l61 -17 -35 -8 c-19 -4 -60 -12 -90 -18 -39 -8 -55
-9 -58 -1 -2 6 -17 11 -33 11 -19 0 -37 9 -51 25 -26 30 -61 32 -88 5 -11 -11
-30 -20 -42 -21 -22 0 -22 -1 -3 -9 11 -5 16 -9 10 -9 -5 -1 -3 -6 5 -11 20
-13 33 -13 25 1 -5 6 9 9 39 8 25 -2 46 -6 46 -10 0 -4 16 -10 35 -13 48 -9
44 -25 -5 -23 -22 2 -40 -1 -40 -5 0 -4 -9 -8 -20 -8 -11 0 -20 4 -20 8 0 4
-13 13 -29 19 -25 9 -31 8 -36 -5 -3 -8 -1 -19 6 -22 6 -4 -4 -10 -22 -13 -19
-2 -58 -11 -86 -19 -29 -8 -53 -11 -53 -7 0 5 -13 9 -29 9 -17 0 -33 5 -36 10
-3 5 -11 10 -16 10 -6 0 -7 -5 -3 -11 3 -6 -1 -10 -12 -9 -11 1 -30 -1 -42 -5
-18 -6 -21 -10 -10 -17 9 -7 7 -8 -9 -5 -13 3 -23 1 -23 -4 0 -5 -12 -9 -27
-9 -22 0 -25 -2 -13 -10 8 -5 11 -10 5 -10 -16 1 -45 26 -38 33 3 4 1 7 -5 7
-7 0 -12 -6 -12 -12 -1 -20 -40 35 -40 55 0 9 -3 17 -7 17 -5 0 -19 9 -33 20
-19 15 -22 22 -12 29 11 7 11 9 -2 14 -10 4 -22 -5 -35 -26 -21 -35 -57 -45
-91 -27 -11 6 -21 6 -25 1 -3 -5 3 -12 12 -15 10 -3 -4 -3 -31 -1 -59 6 -64
10 -48 35 10 17 10 20 -3 20 -8 0 -23 10 -35 22 -11 12 -20 16 -20 10 0 -7
-11 -12 -25 -12 -14 0 -25 5 -25 11 0 5 5 7 12 3 7 -4 8 -3 4 4 -5 9 -14 7
-32 -4 -13 -9 -28 -14 -31 -10 -4 4 3 9 15 13 26 6 24 26 -3 31 -10 3 -15 0
-11 -7 8 -13 -18 -4 -50 16 -27 17 -39 5 -17 -19 9 -10 12 -18 7 -18 -15 0
-65 36 -58 42 3 3 -13 5 -35 4 -26 -1 -59 6 -89 21 -26 12 -55 20 -64 17 -10
-3 -34 2 -53 12 -30 14 -43 15 -74 5 -58 -17 -171 -15 -171 4 0 8 -12 17 -27
21 -16 3 -37 9 -48 12 -11 3 -28 5 -37 3 -10 -1 -18 3 -18 8 0 6 -7 11 -16 11
-8 0 -12 -4 -9 -10 3 -5 -3 -10 -15 -10 -11 0 -23 6 -26 14 -4 11 -12 13 -29
6 -21 -8 -71 3 -102 23 -7 5 -13 4 -13 -1 0 -15 -58 -12 -71 4 -14 17 -8 389
7 403 5 6 14 4 22 -5 7 -8 8 -14 2 -14 -5 0 -10 -11 -10 -25 0 -14 2 -25 4
-25 4 0 42 34 103 92 29 27 20 41 -15 22 -15 -7 -35 -14 -46 -14 -15 0 -17 5
-12 35 5 23 3 35 -4 35 -7 0 -10 6 -8 12 3 7 13 13 23 13 29 0 28 20 -2 35
-16 7 -31 13 -35 12 -10 -2 -10 99 -1 191 5 62 8 67 30 67 13 0 37 -13 55 -30z
m-2629 -49 c27 -22 21 -48 -12 -54 -22 -5 -31 -13 -35 -34 -7 -31 -64 -63
-111 -63 -25 0 -25 1 -25 83 l0 82 83 0 c56 0 89 -5 100 -14z m-1534 0 c21
-14 6 -38 -29 -46 -39 -9 -46 -2 -32 30 12 25 36 32 61 16z m-1118 -16 c1 -17
-18 -17 -25 0 -4 11 -1 15 10 13 8 -2 15 -7 15 -13z m6956 -226 c21 -11 54
-19 75 -19 21 0 38 -4 38 -10 0 -5 -5 -10 -12 -10 -21 0 2 -14 30 -18 31 -4
54 -20 46 -33 -11 -19 -73 -41 -89 -31 -9 5 -15 12 -13 16 5 11 -95 59 -147
71 -30 7 -75 41 -75 57 0 15 107 -2 147 -23z m-1770 -11 c-3 -7 -5 -2 -5 12 0
14 2 19 5 13 2 -7 2 -19 0 -25z m-5887 -68 c0 -5 -4 -10 -10 -10 -5 0 -10 5
-10 10 0 6 5 10 10 10 6 0 10 -4 10 -10z m-55 -10 c3 -5 1 -10 -4 -10 -6 0
-11 5 -11 10 0 6 2 10 4 10 3 0 8 -4 11 -10z m-1587 -21 c65 0 72 -2 61 -15
-10 -13 -10 -17 2 -25 8 -5 22 -9 33 -9 16 0 16 -2 5 -16 -10 -13 -10 -17 2
-25 8 -5 20 -9 28 -9 11 0 10 -4 -4 -13 -12 -10 -14 -16 -7 -21 17 -10 15 -26
-3 -26 -21 0 -19 -18 4 -32 18 -11 18 -12 -6 -25 -14 -7 -36 -13 -50 -13 -16
0 -22 -4 -17 -12 7 -11 -10 -9 -49 7 -13 6 -20 2 -23 -13 -4 -13 -12 -18 -25
-15 -10 3 -19 9 -19 13 0 16 -45 15 -57 0 -10 -12 -14 -12 -21 -2 -11 16 -92
18 -157 4 -45 -9 -52 -8 -68 9 -21 23 -18 22 -51 5 -30 -15 -35 -31 -10 -31
11 0 23 -18 35 -55 22 -67 23 -80 7 -80 -7 0 -20 -5 -28 -10 -13 -9 -13 -11 0
-20 12 -8 9 -10 -12 -10 -16 0 -28 6 -28 13 0 8 -3 7 -9 -3 -6 -8 -24 -14 -45
-13 -21 1 -36 -4 -36 -11 0 -22 -37 -37 -67 -25 -18 6 -23 13 -15 17 6 4 -7 9
-30 9 -35 2 -38 0 -23 -11 16 -12 14 -14 -21 -19 -25 -4 -41 -2 -46 6 -5 9
-12 9 -25 1 -26 -16 -42 -53 -44 -107 -4 -65 -24 -54 -24 12 0 35 5 55 14 61
8 4 16 25 17 46 3 34 1 37 -10 22 -7 -10 -28 -21 -47 -25 -27 -5 -30 -8 -14
-13 11 -4 26 -3 33 2 15 13 15 0 0 -35 -13 -26 -28 -36 -28 -18 0 5 -9 11 -19
14 -22 5 -23 49 -3 69 20 20 13 32 -8 13 -18 -16 -20 -16 -26 -1 -7 18 -25 22
-22 4 4 -15 -108 -23 -117 -8 -8 13 -35 13 -35 -1 0 -5 4 -8 9 -5 5 3 8 -2 7
-12 -1 -13 11 -19 52 -27 52 -10 53 -11 34 -28 -18 -16 -21 -16 -35 -2 -22 22
-57 20 -57 -4 0 -11 -6 -26 -13 -33 -8 -7 -12 -19 -9 -26 2 -8 -2 -10 -14 -5
-12 4 -15 2 -12 -8 8 -23 38 -23 38 0 0 12 4 21 8 21 10 0 47 -39 41 -43 -31
-18 -51 -24 -87 -25 -36 -2 -48 4 -80 32 -37 34 -38 61 -2 38 17 -10 18 -9 13
6 -4 9 -13 23 -20 30 -17 18 -6 35 18 29 10 -3 22 -1 25 4 3 5 20 9 37 10 30
0 31 1 9 10 -21 8 -22 10 -8 25 9 8 16 20 16 25 0 5 6 9 13 9 8 0 36 11 63 25
36 19 63 25 99 24 65 -2 73 -1 56 10 -7 5 -32 7 -55 5 -34 -4 -37 -3 -18 6 20
8 21 13 11 31 -9 17 -8 20 3 16 7 -2 21 3 31 11 16 14 19 14 32 -4 13 -18 15
-18 32 -1 17 16 16 17 -2 17 -16 0 -17 2 -5 10 9 5 19 5 27 -1 7 -6 26 -8 43
-4 36 8 38 0 8 -32 -23 -24 -8 -33 22 -13 13 9 13 10 0 11 -8 1 -1 5 15 9 17
5 40 12 53 15 18 6 21 4 16 -8 -3 -9 -15 -17 -27 -19 -20 -3 -20 -4 -4 -10 12
-5 23 -1 34 12 12 13 19 16 24 8 5 -8 13 -6 26 7 16 17 16 18 1 12 -22 -8 -36
12 -17 24 8 5 33 8 57 7 87 -3 44 15 -92 37 -21 3 -36 9 -33 11 9 10 87 13 87
3 0 -18 18 -9 23 12 4 16 11 20 26 16 13 -3 21 0 21 7 0 7 16 20 35 29 19 9
35 21 35 27 0 5 11 10 25 10 15 0 25 6 25 15 0 8 9 19 20 25 11 6 18 16 14 22
-5 7 1 9 19 4 14 -3 28 -2 32 3 3 6 27 13 53 16 26 3 56 10 67 15 11 5 54 7
95 4 41 -3 108 -5 148 -5z m1712 -10 c0 -5 -7 -9 -15 -9 -8 0 -15 7 -15 15 0
9 6 12 15 9 8 -4 15 -10 15 -15z m-65 1 c3 -5 -3 -10 -14 -10 -12 0 -21 5 -21
10 0 6 6 10 14 10 8 0 18 -4 21 -10z m-75 -28 c0 -8 12 -10 80 -13 22 -1 40
-5 40 -10 0 -4 3 -14 6 -23 5 -12 0 -16 -19 -16 -14 0 -38 -5 -54 -12 -25 -10
-26 -12 -8 -16 11 -2 24 -10 28 -18 4 -8 15 -14 24 -14 9 0 13 -3 10 -6 -7 -8
-75 23 -95 42 -7 8 -10 19 -6 26 5 7 2 9 -9 5 -8 -3 -21 1 -28 10 -8 8 -22 19
-34 23 -19 8 -19 8 5 18 30 13 60 15 60 4z m220 -2 c-20 -13 -33 -13 -25 0 3
6 14 10 23 10 15 0 15 -2 2 -10z m8204 4 c22 -8 20 -24 -3 -24 -10 0 -21 7
-25 15 -6 16 3 19 28 9z m-8147 -28 c3 -3 -19 -6 -50 -6 -36 0 -57 -4 -57 -11
0 -8 -5 -8 -15 1 -8 7 -13 16 -10 20 5 9 123 6 132 -4z m-2372 -36 c3 -5 1
-10 -4 -10 -6 0 -11 5 -11 10 0 6 2 10 4 10 3 0 8 -4 11 -10z m2045 -6 c0 -8
8 -14 18 -15 9 0 -3 -7 -28 -15 -57 -18 -65 -17 -46 1 8 8 22 12 30 9 9 -3 16
-1 16 5 0 6 -9 11 -21 11 -26 0 -17 15 10 17 12 1 21 -4 21 -13z m8627 0 c-3
-3 -12 -4 -19 -1 -8 3 -5 6 6 6 11 1 17 -2 13 -5z m-8407 -19 c10 -12 10 -15
-4 -15 -9 0 -16 7 -16 15 0 8 2 15 4 15 2 0 9 -7 16 -15z m-324 -10 c17 -16
16 -17 -21 -17 -53 0 -65 2 -65 13 0 7 10 9 24 5 14 -3 28 -2 31 4 8 14 14 13
31 -5z m154 -15 c-9 -16 -13 -18 -24 -8 -12 11 -11 14 3 20 27 11 32 9 21 -12z
m8035 -39 c22 -11 34 -20 26 -20 -23 -2 -91 22 -91 31 0 13 22 9 65 -11z
m-3918 3 c-3 -3 -12 -4 -19 -1 -8 3 -5 6 6 6 11 1 17 -2 13 -5z m-6527 -14
c12 -8 10 -10 -10 -10 -25 -1 -25 -1 -2 -10 32 -14 27 -20 -10 -13 -43 8 -47
12 -24 29 23 16 26 17 46 4z m-88 -29 c4 -3 -24 -7 -63 -7 -58 -1 -66 1 -47
10 22 11 97 10 110 -3z m10518 -1 c0 -5 -5 -10 -11 -10 -5 0 -7 5 -4 10 3 6 8
10 11 10 2 0 4 -4 4 -10z m-10380 -10 c0 -5 -4 -10 -9 -10 -6 0 -13 5 -16 10
-3 6 1 10 9 10 9 0 16 -4 16 -10z m68 -10 c6 0 12 -4 12 -9 0 -5 -10 -7 -22
-3 -14 3 -19 1 -14 -6 5 -8 1 -10 -9 -5 -12 4 -13 8 -4 13 9 6 9 9 -2 13 -8 2
-5 3 6 1 11 -2 26 -4 33 -4z m462 -24 c14 2 34 5 45 7 11 1 38 -1 60 -6 22 -4
49 -9 59 -10 63 -7 -23 -51 -101 -51 -17 0 -29 -4 -26 -9 3 -5 -14 -8 -41 -6
-26 3 -46 0 -46 -6 -1 -13 -39 57 -40 72 0 13 40 22 55 12 6 -3 21 -5 35 -3z
m245 -18 c3 -3 -6 -8 -20 -10 -17 -4 -25 -1 -25 8 0 13 33 15 45 2z m1572 -64
c-3 -3 -12 -4 -19 -1 -8 3 -5 6 6 6 11 1 17 -2 13 -5z m-260 -10 c-3 -3 -12
-4 -19 -1 -8 3 -5 6 6 6 11 1 17 -2 13 -5z m4751 -19 c-3 -3 -9 2 -12 12 -6
14 -5 15 5 6 7 -7 10 -15 7 -18z m-7318 5 c0 -5 -7 -10 -15 -10 -8 0 -15 5
-15 10 0 6 7 10 15 10 8 0 15 -4 15 -10z m60 -3 c0 -2 -10 -12 -22 -23 -12
-10 -18 -13 -14 -6 4 6 2 12 -3 12 -6 0 -11 5 -11 10 0 6 11 10 25 10 14 0 25
-2 25 -3z m110 -7 c-8 -5 -19 -10 -25 -10 -5 0 -3 5 5 10 8 5 20 10 25 10 6 0
3 -5 -5 -10z m11007 4 c-3 -3 -12 -4 -19 -1 -8 3 -5 6 6 6 11 1 17 -2 13 -5z
m-11294 -18 c14 -11 15 -15 4 -19 -8 -3 -21 3 -30 14 -20 22 -2 26 26 5z m237
10 c0 -2 -7 -6 -15 -10 -8 -3 -15 -1 -15 4 0 6 7 10 15 10 8 0 15 -2 15 -4z
m-143 -22 c-3 -3 -12 -4 -19 -1 -8 3 -5 6 6 6 11 1 17 -2 13 -5z m69 -33 c-15
-28 -46 -49 -46 -31 0 6 6 10 13 10 8 0 19 11 25 25 6 14 14 25 17 25 3 0 -1
-13 -9 -29z m11031 11 c-9 -2 -15 -7 -13 -10 2 -4 -8 -7 -22 -8 -15 0 -36 -2
-46 -5 -11 -2 -21 2 -24 10 -3 10 0 12 12 8 9 -4 16 -2 16 3 0 12 28 17 65 11
19 -3 23 -6 12 -9z m-11109 -4 c21 -21 13 -26 -30 -17 -24 4 -61 9 -83 10
l-40 2 35 7 c56 12 105 11 118 -2z m10719 -24 c-3 -3 -12 -4 -19 -1 -8 3 -5 6
6 6 11 1 17 -2 13 -5z m436 -9 c-3 -9 -8 -14 -10 -11 -3 3 -2 9 2 15 9 16 15
13 8 -4z m-213 -9 c0 -8 -4 -18 -10 -21 -5 -3 -10 -2 -10 3 0 5 -10 14 -22 20
-22 10 -21 11 10 11 21 1 32 -4 32 -13z m136 5 c5 -5 18 -11 29 -14 13 -3 10
-5 -11 -6 -20 -1 -34 5 -38 14 -6 17 5 20 20 6z m47 2 c-7 -2 -19 -2 -25 0 -7
3 -2 5 12 5 14 0 19 -2 13 -5z m-11186 -9 c-3 -3 -12 -4 -19 -1 -8 3 -5 6 6 6
11 1 17 -2 13 -5z m11091 -1 c-10 -2 -26 -2 -35 0 -10 3 -2 5 17 5 19 0 27 -2
18 -5z m-10458 -23 c0 -5 -4 -10 -10 -10 -5 0 -10 5 -10 10 0 6 5 10 10 10 6
0 10 -4 10 -10z m3897 4 c-3 -3 -12 -4 -19 -1 -8 3 -5 6 6 6 11 1 17 -2 13 -5z
m6490 -42 c-40 -5 -59 15 -23 24 14 3 26 11 26 18 0 6 6 0 13 -14 12 -24 11
-25 -16 -28z m-1417 28 c0 -5 -4 -10 -10 -10 -5 0 -10 5 -10 10 0 6 5 10 10
10 6 0 10 -4 10 -10z m1350 0 c-8 -5 -19 -10 -25 -10 -5 0 -3 5 5 10 8 5 20
10 25 10 6 0 3 -5 -5 -10z m-10845 -20 c3 -5 2 -10 -4 -10 -5 0 -13 5 -16 10
-3 6 -2 10 4 10 5 0 13 -4 16 -10z m-287 -17 c2 -7 -4 -13 -13 -13 -9 0 -14 4
-11 9 4 5 0 12 -6 15 -7 3 -4 5 6 3 11 -1 21 -8 24 -14z m6997 -12 c-3 -6 -14
-11 -23 -11 -13 0 -13 2 4 14 21 15 30 14 19 -3z m3055 -27 c0 -2 -7 -4 -15
-4 -8 0 -15 4 -15 10 0 5 7 7 15 4 8 -4 15 -8 15 -10z m-5840 -28 c18 -19 42
-36 54 -38 16 -2 23 -15 32 -56 14 -61 11 -57 45 -65 34 -9 64 17 81 69 13 40
41 56 51 30 3 -8 0 -40 -8 -71 -19 -71 -19 -85 0 -85 8 0 15 -7 15 -15 0 -9 6
-12 18 -8 25 10 32 23 32 69 0 23 6 46 13 51 13 10 110 9 127 -2 7 -4 7 -11 2
-18 -5 -7 -10 -34 -11 -62 -2 -27 -7 -52 -11 -55 -5 -3 -12 -19 -16 -35 -4
-17 -14 -41 -23 -55 -9 -14 -28 -49 -41 -77 -18 -40 -33 -58 -64 -74 -38 -20
-41 -20 -53 -3 -17 24 -16 65 2 100 21 42 20 68 -4 61 -13 -3 -21 1 -24 15 -3
11 -9 18 -14 16 -4 -2 -27 -13 -50 -24 -47 -21 -51 -32 -26 -70 15 -23 15 -26
0 -42 -26 -25 -73 -5 -69 29 1 14 -4 52 -11 85 -12 52 -17 59 -40 62 -32 4
-44 18 -49 57 -2 22 -9 31 -28 35 -28 7 -42 50 -16 50 8 0 18 -4 21 -10 9 -15
35 -12 35 4 0 8 -10 22 -21 30 -20 13 -21 18 -9 45 6 16 9 35 5 40 -7 13 3 51
14 51 4 0 22 -16 41 -34z m7248 25 c6 0 12 -6 12 -12 0 -5 -5 -7 -11 -3 -6 3
-14 2 -18 -4 -4 -6 -23 -8 -49 -5 -45 6 -56 19 -19 26 19 3 34 3 85 -2z
m-7168 -15 c0 -2 -7 -7 -16 -10 -8 -3 -12 -2 -9 4 6 10 25 14 25 6z m-1550
-32 c13 -32 13 -64 1 -64 -5 0 -21 4 -35 10 -26 9 -26 10 -9 45 20 42 30 44
43 9z m8817 20 c-3 -3 -12 -4 -19 -1 -8 3 -5 6 6 6 11 1 17 -2 13 -5z m98 -14
c3 -5 2 -10 -4 -10 -5 0 -13 5 -16 10 -3 6 -2 10 4 10 5 0 13 -4 16 -10z m60
-10 c2 -4 -7 -5 -20 -2 -14 2 -25 8 -25 12 0 10 38 1 45 -10z m-458 -17 c-9
-9 -19 -14 -23 -11 -10 10 6 28 24 28 15 0 15 -1 -1 -17z m106 0 c-7 -2 -19
-2 -25 0 -7 3 -2 5 12 5 14 0 19 -2 13 -5z m-7018 -23 c3 -6 -1 -7 -9 -4 -18
7 -21 14 -7 14 6 0 13 -4 16 -10z m6125 0 c8 -5 11 -12 8 -16 -4 -3 -14 1 -23
10 -18 17 -9 21 15 6z m750 0 c0 -5 -4 -10 -9 -10 -6 0 -13 5 -16 10 -3 6 1
10 9 10 9 0 16 -4 16 -10z m153 -19 c4 -1 7 -10 7 -22 0 -14 -5 -19 -17 -17
-10 2 -17 10 -15 16 1 7 -2 12 -8 12 -5 0 -10 4 -10 9 0 5 8 8 18 6 9 -2 20
-4 25 -4z m-223 -11 c22 -7 21 -8 -12 -9 -20 -1 -40 4 -43 9 -7 12 19 12 55 0z
m290 -12 c0 -6 -3 -8 -7 -5 -3 4 -12 2 -19 -4 -8 -7 -14 -6 -20 2 -4 8 -3 9 5
5 6 -4 14 0 17 8 7 17 24 12 24 -6z m-8689 -15 c-12 -20 -14 -14 -5 12 4 9 9
14 11 11 3 -2 0 -13 -6 -23z m7619 17 c0 -5 -5 -10 -11 -10 -5 0 -7 -4 -4 -10
3 -6 -1 -7 -10 -4 -12 5 -13 9 -4 20 13 16 29 18 29 4z m570 -5 c0 -8 -4 -15
-9 -15 -13 0 -22 16 -14 24 11 11 23 6 23 -9z m-440 -15 c0 -5 -15 -10 -32
-10 -25 0 -29 3 -18 10 20 13 50 13 50 0z m237 4 c-3 -3 -12 -4 -19 -1 -8 3
-5 6 6 6 11 1 17 -2 13 -5z m-401 -23 c-3 -5 4 -11 17 -15 35 -9 105 -7 112 4
9 15 45 12 40 -2 -4 -10 14 -13 75 -11 45 1 80 -2 80 -7 0 -6 -3 -10 -7 -10
-5 0 -16 -7 -27 -15 -17 -13 -17 -15 -3 -29 9 -9 27 -16 40 -16 34 0 58 -10
51 -21 -3 -5 1 -9 9 -9 20 0 62 -23 64 -35 1 -6 -14 -11 -33 -12 -19 -1 -34 2
-34 7 0 11 -90 4 -152 -11 -40 -10 -48 -16 -48 -36 0 -24 29 -34 31 -10 1 14
28 -42 29 -60 0 -8 -12 -13 -30 -13 -23 0 -33 -6 -40 -24 -8 -22 -13 -23 -87
-23 -42 0 -72 2 -65 5 6 2 12 12 12 22 0 10 4 21 10 25 5 3 7 12 4 19 -4 10 7
16 35 21 23 4 41 11 41 16 0 5 11 15 25 21 14 6 25 15 25 20 0 8 -50 -19 -60
-34 -3 -4 -27 -8 -53 -10 -28 -2 -47 -8 -47 -15 0 -15 -58 -44 -65 -33 -8 12
-63 -9 -61 -23 0 -7 -3 -13 -9 -14 -5 -2 -10 2 -10 9 0 15 -61 30 -92 23 -21
-5 -23 -2 -23 37 0 24 4 38 8 32 4 -6 17 -14 29 -18 18 -6 22 -4 17 8 -8 20
10 21 26 1 9 -11 16 -13 24 -5 7 7 4 15 -12 26 -12 8 -22 22 -22 31 0 9 -6 13
-15 10 -8 -4 -17 -2 -20 4 -4 5 7 12 24 15 20 4 31 13 33 28 2 11 8 20 14 19
7 -1 24 11 40 26 25 25 30 27 40 13 8 -10 17 -13 30 -7 10 4 30 7 44 6 20 -2
22 0 10 8 -8 6 -25 11 -37 11 -21 0 -21 1 -7 30 9 17 18 30 20 30 3 0 3 -4 0
-9z m399 -11 c3 -5 -1 -10 -10 -10 -9 0 -13 5 -10 10 3 6 8 10 10 10 2 0 7 -4
10 -10z m75 -10 c11 -7 8 -8 -13 -6 -15 1 -30 6 -34 9 -10 11 30 8 47 -3z
m167 -17 c-3 -3 -11 -2 -17 2 -9 6 -9 10 1 16 14 8 27 -7 16 -18z m133 -9 c0
-2 -17 -4 -37 -3 -29 0 -33 2 -18 8 18 7 55 4 55 -5z m40 6 c0 -5 -2 -10 -4
-10 -3 0 -8 5 -11 10 -3 6 -1 10 4 10 6 0 11 -4 11 -10z m-7441 -47 c-6 -7
-17 -13 -24 -13 -19 0 -27 30 -14 47 10 11 15 11 30 -3 14 -13 16 -20 8 -31z
m141 26 c0 -5 -7 -9 -15 -9 -15 0 -20 12 -9 23 8 8 24 -1 24 -14z m2500 11 c0
-5 -7 -10 -15 -10 -8 0 -15 5 -15 10 0 6 7 10 15 10 8 0 15 -4 15 -10z m3734
-5 c-6 -16 -24 -21 -24 -7 0 11 11 22 21 22 5 0 6 -7 3 -15z m-3649 -28 c8
-24 6 -30 -8 -38 -9 -6 -17 -17 -17 -24 0 -8 -7 -15 -15 -15 -18 0 -18 1 0 36
9 19 11 32 5 38 -16 16 -11 38 7 34 10 -2 22 -16 28 -31z m4399 -10 c-11 -6
-19 -5 -25 4 -11 18 11 31 29 17 11 -10 10 -13 -4 -21z m111 23 c18 -7 18 -8
3 -15 -11 -4 -24 -1 -33 9 -18 18 -5 21 30 6z m-4650 -11 c10 -14 1 -21 -19
-13 -9 3 -13 10 -10 15 7 12 21 11 29 -2z m4495 -31 c0 -10 -12 -10 -34 -2
-13 5 -13 10 -5 27 11 20 12 20 25 2 8 -10 14 -22 14 -27z m-7680 17 c0 -8 -4
-15 -9 -15 -13 0 -22 16 -14 24 11 11 23 6 23 -9z m-110 -1 c0 -3 -11 -20 -25
-38 -14 -18 -25 -40 -25 -48 0 -8 -15 -29 -32 -45 -18 -17 -46 -45 -61 -62
-33 -35 -47 -39 -47 -13 0 21 44 63 69 67 9 1 16 6 17 11 1 12 13 45 25 66 5
10 9 23 9 29 0 16 31 38 53 39 9 0 17 -3 17 -6z m8140 -18 c0 -3 -4 -8 -10
-11 -5 -3 -10 -1 -10 4 0 6 5 11 10 11 6 0 10 -2 10 -4z m-260 -10 c0 -3 -4
-8 -10 -11 -5 -3 -10 -1 -10 4 0 6 5 11 10 11 6 0 10 -2 10 -4z m-7727 -48
c21 -36 21 -37 3 -57 -21 -23 -56 -27 -74 -9 -13 13 -16 66 -6 93 11 29 54 14
77 -27z m-715 -35 c-5 -27 -42 -23 -46 5 -2 13 -1 30 2 38 5 13 9 12 27 -5 11
-10 19 -27 17 -38z m7618 30 c-10 -10 -19 5 -10 18 6 11 8 11 12 0 2 -7 1 -15
-2 -18z m1139 -20 c-29 -20 -38 -3 -13 24 20 22 23 23 27 7 2 -10 -5 -23 -14
-31z m-8515 2 c0 -14 -4 -25 -9 -25 -12 0 -23 29 -15 41 10 18 24 9 24 -16z
m7320 18 c0 -14 -19 -38 -25 -32 -8 8 5 39 16 39 5 0 9 -3 9 -7z m915 -3 c-3
-5 -13 -10 -21 -10 -8 0 -14 5 -14 10 0 6 9 10 21 10 11 0 17 -4 14 -10z m-91
-25 c-5 -19 -2 -25 10 -25 9 0 16 -4 16 -10 0 -14 -13 -12 -36 5 -10 8 -27 15
-36 15 -39 0 -5 39 35 40 14 0 16 -5 11 -25z m306 -9 c-6 -6 -15 -4 -25 4 -23
19 -18 29 9 17 15 -7 21 -16 16 -21z m-8540 14 c0 -5 -9 -10 -20 -10 -11 0
-20 5 -20 10 0 6 9 10 20 10 11 0 20 -4 20 -10z m8490 -14 c0 -3 -4 -8 -10
-11 -5 -3 -10 -1 -10 4 0 6 5 11 10 11 6 0 10 -2 10 -4z m-8537 -23 c4 -3 2
-12 -4 -20 -8 -8 -8 -13 -1 -13 6 0 12 5 14 11 6 18 70 14 84 -6 17 -23 8 -38
-18 -29 -16 5 -14 0 10 -22 25 -23 30 -35 25 -56 -3 -16 -11 -28 -17 -28 -14
0 -44 31 -70 74 -17 26 -19 27 -34 12 -14 -13 -14 -20 -4 -36 19 -30 15 -50
-10 -50 -12 0 -31 -9 -43 -20 -18 -17 -24 -18 -59 -6 -30 10 -42 22 -57 56
-24 53 -17 84 16 76 13 -3 29 -8 37 -11 7 -3 31 12 53 35 37 37 63 49 78 33z
m8202 -53 c-4 -6 -24 -10 -46 -10 -22 0 -39 -5 -39 -11 0 -6 -9 -9 -20 -6 -11
3 -20 1 -20 -4 0 -5 -6 -9 -14 -9 -9 0 -12 7 -9 20 6 22 18 26 28 10 4 -7 13
-6 27 1 19 10 20 12 5 21 -22 12 -22 26 1 30 22 6 94 -30 87 -42z m-6095 -5
c0 -8 -7 -15 -16 -15 -14 0 -14 3 -4 15 7 8 14 15 16 15 2 0 4 -7 4 -15z
m3290 5 c0 -5 -4 -10 -10 -10 -5 0 -10 5 -10 10 0 6 5 10 10 10 6 0 10 -4 10
-10z m40 -50 c-12 -22 -25 -26 -35 -10 -9 15 4 30 26 30 17 0 18 -3 9 -20z
m2170 1 c0 -10 -24 -21 -46 -21 -8 0 -14 7 -14 15 0 10 10 15 30 15 17 0 30
-4 30 -9z m1518 -28 c26 -11 32 -17 20 -20 -23 -6 -98 15 -98 27 0 15 36 12
78 -7z m-7208 -25 c0 -21 -35 -68 -52 -68 -13 0 -9 17 13 54 24 41 39 46 39
14z m210 -3 c0 -8 -7 -15 -15 -15 -8 0 -15 7 -15 15 0 8 7 15 15 15 8 0 15 -7
15 -15z m-2340 -81 c0 -14 -4 -23 -9 -20 -5 3 -7 15 -4 26 7 28 13 25 13 -6z"/>
<path d="M5120 4919 c0 -36 -5 -46 -37 -73 -35 -31 -36 -33 -22 -61 17 -36 56
-57 80 -44 10 5 24 23 33 40 14 28 14 33 -2 55 -9 13 -20 24 -24 24 -5 0 -8
20 -8 44 0 25 -4 48 -10 51 -6 4 -10 -10 -10 -36z m38 -116 c3 -27 -1 -35 -22
-44 -31 -14 -56 2 -56 35 0 30 20 47 50 44 20 -2 26 -9 28 -35z"/>
<path d="M11862 4850 c0 -14 2 -19 5 -12 2 6 2 18 0 25 -3 6 -5 1 -5 -13z"/>
<path d="M8638 2883 c19 -14 22 -24 22 -88 0 -77 -6 -89 -51 -100 -14 -3 -38
-19 -53 -36 -15 -16 -34 -29 -41 -29 -24 0 -28 -21 -7 -43 11 -12 23 -33 27
-47 16 -55 46 -89 86 -100 78 -21 141 15 170 99 6 17 19 33 30 36 23 8 25 25
3 25 -20 0 -134 114 -134 134 0 9 9 21 20 28 11 7 20 16 20 19 0 4 -9 9 -20
12 -16 4 -20 14 -20 50 0 47 -10 58 -53 56 l-22 0 23 -16z m93 -252 c45 -45
40 -110 -12 -136 -41 -21 -72 -18 -103 10 -37 34 -39 94 -3 133 30 33 81 30
118 -7z"/>
<path d="M8330 2390 c0 -14 7 -20 23 -21 12 0 30 -2 40 -4 11 -2 17 3 17 16 0
22 -11 24 -28 7 -9 -9 -12 -8 -12 5 0 10 -8 17 -20 17 -13 0 -20 -7 -20 -20z"/>
<path d="M8461 2383 c-1 -37 16 -47 43 -24 11 9 16 11 13 5 -4 -7 0 -17 8 -24
8 -7 15 -11 16 -9 0 2 2 18 3 36 3 30 2 32 -25 30 -20 -1 -29 -7 -29 -19 0
-10 -5 -18 -11 -18 -5 0 -8 3 -6 8 3 4 1 16 -4 27 -6 17 -8 15 -8 -12z"/>
<path d="M8562 2369 c2 -18 9 -34 16 -37 10 -3 13 5 10 29 -2 18 -9 34 -16 37
-10 3 -13 -5 -10 -29z"/>
<path d="M8642 2360 c0 -14 2 -19 5 -12 2 6 2 18 0 25 -3 6 -5 1 -5 -13z"/>
<path d="M8425 2360 c-3 -5 -2 -10 4 -10 5 0 13 5 16 10 3 6 2 10 -4 10 -5 0
-13 -4 -16 -10z"/>
<path d="M8340 2295 c0 -9 6 -12 15 -9 12 5 15 -3 16 -37 1 -24 3 -35 6 -24 2
11 6 30 8 42 9 39 35 16 35 -29 0 -35 2 -39 15 -28 12 10 16 9 21 -4 3 -9 11
-16 16 -16 6 0 7 7 4 16 -4 9 -1 22 5 30 22 27 -39 79 -71 59 -5 -3 -11 -1
-15 5 -10 16 -55 12 -55 -5z m112 -47 c-9 -9 -12 -7 -12 12 0 19 3 21 12 12 9
-9 9 -15 0 -24z"/>
<path d="M8498 2243 c-3 -27 -3 -51 -1 -55 7 -13 73 -9 73 4 0 6 8 4 20 -7 12
-11 26 -15 37 -10 16 6 16 8 -4 16 -26 9 -32 56 -11 77 9 9 8 12 -4 12 -20 0
-35 -19 -40 -50 -4 -29 -48 -43 -48 -16 0 9 7 16 15 16 20 0 19 17 -2 30 -16
9 -15 10 5 5 16 -5 22 -2 22 9 0 11 -9 16 -29 16 -27 0 -29 -3 -33 -47z"/>
<path d="M8668 2224 c-3 -44 2 -61 16 -47 9 10 7 93 -3 93 -5 0 -11 -21 -13
-46z"/>
<path d="M8730 2220 c0 -22 4 -40 9 -40 5 0 9 18 8 40 -1 22 -5 40 -9 40 -5 0
-8 -18 -8 -40z"/>
<path d="M8783 2225 c0 -22 2 -30 4 -17 2 12 2 30 0 40 -3 9 -5 -1 -4 -23z"/>
<path d="M8520 2110 c0 -11 7 -20 15 -20 8 0 15 9 15 20 0 11 -7 20 -15 20 -8
0 -15 -9 -15 -20z"/>
<path d="M8570 2105 c0 -16 6 -25 16 -25 11 0 14 5 10 16 -3 9 -6 20 -6 25 0
5 -4 9 -10 9 -5 0 -10 -11 -10 -25z"/>
<path d="M8625 2102 c-8 -21 -7 -22 20 -22 17 0 25 5 25 18 0 21 -37 25 -45 4z"/>
<path d="M8613 2043 c-20 -7 -15 -19 7 -19 11 0 20 6 20 13 0 14 -6 15 -27 6z"/>
<path d="M8595 1956 c-9 -20 -20 -36 -27 -36 -6 0 -9 -3 -5 -6 17 -17 373 -38
383 -23 4 8 -58 19 -106 19 -42 0 -120 30 -120 47 0 16 -7 19 -63 27 -47 7
-48 7 -62 -28z"/>
<path d="M4950 2825 c0 -3 6 -16 13 -28 8 -12 13 -31 12 -42 -1 -11 -2 -37 -3
-57 -2 -26 -7 -38 -21 -43 -11 -3 -35 -18 -54 -33 -19 -15 -43 -32 -53 -39
-18 -11 -18 -12 4 -28 12 -9 22 -23 22 -31 0 -56 74 -111 138 -101 42 7 68 29
93 80 11 20 24 37 30 37 21 0 3 28 -44 69 -27 22 -52 41 -57 41 -21 0 -20 36
2 54 l23 18 -22 15 c-17 12 -23 25 -23 54 0 37 -2 39 -30 39 -16 0 -30 -2 -30
-5z m59 -216 c57 -20 71 -92 25 -128 -79 -62 -170 43 -99 114 28 28 31 29 74
14z"/>
<path d="M4660 2385 c0 -11 7 -15 23 -13 12 2 22 8 22 13 0 6 -10 11 -22 13
-16 2 -23 -2 -23 -13z"/>
<path d="M5163 2364 c-3 -10 -8 -12 -12 -5 -8 12 -51 3 -51 -10 0 -5 12 -10
28 -10 15 -1 44 -3 65 -4 34 -2 37 0 31 19 -9 30 -14 33 -24 16 -7 -10 -10
-11 -10 -2 0 17 -19 15 -27 -4z"/>
<path d="M5248 2355 c2 -14 9 -25 16 -25 6 0 21 -3 33 -6 22 -6 22 -5 12 25
-9 25 -17 31 -39 31 -24 0 -27 -3 -22 -25z m42 5 c0 -5 -2 -10 -4 -10 -3 0 -8
5 -11 10 -3 6 -1 10 4 10 6 0 11 -4 11 -10z"/>
<path d="M4750 2256 c0 -44 12 -60 24 -33 5 10 7 10 12 0 11 -25 24 -12 24 24
0 35 -1 36 -15 17 -14 -18 -17 -16 -19 15 -1 8 -7 16 -14 19 -8 2 -12 -10 -12
-42z"/>
<path d="M4837 2284 c-10 -10 -9 -84 2 -84 11 0 19 52 11 74 -3 9 -9 14 -13
10z"/>
<path d="M4912 2268 c-14 -14 -16 -44 -3 -52 5 -3 11 9 14 27 6 38 4 40 -11
25z"/>
<path d="M4990 2234 c0 -27 4 -43 10 -39 6 3 10 24 10 46 0 21 -4 39 -10 39
-5 0 -10 -21 -10 -46z"/>
<path d="M5040 2235 c0 -25 5 -45 10 -45 6 0 10 20 10 45 0 25 -4 45 -10 45
-5 0 -10 -20 -10 -45z"/>
<path d="M5319 2166 c-2 -3 -24 -6 -49 -9 -66 -6 -50 -23 18 -18 64 4 80 10
61 22 -16 10 -24 11 -30 5z"/>
<path d="M4613 2000 c0 -25 2 -35 4 -22 2 12 2 32 0 45 -2 12 -4 2 -4 -23z"/>
<path d="M5325 1990 c-16 -7 -17 -9 -3 -9 9 -1 21 -8 25 -16 6 -9 13 -11 23
-5 11 7 11 11 1 24 -15 18 -18 18 -46 6z"/>
<path d="M2960 2771 c0 -5 7 -11 15 -15 11 -4 15 -22 15 -76 0 -59 -3 -72 -18
-78 -10 -4 -38 -24 -61 -44 l-43 -37 21 -27 c11 -15 21 -34 21 -43 0 -9 8 -26
18 -37 55 -69 149 -54 183 28 7 18 20 38 28 44 12 10 6 20 -39 63 -29 28 -57
51 -62 51 -15 0 -8 49 8 58 15 8 15 11 -5 31 -13 13 -21 34 -21 56 0 32 -2 35
-30 35 -16 0 -30 -4 -30 -9z m89 -227 c58 -49 33 -137 -39 -137 -37 0 -58 17
-68 57 -14 52 16 106 59 106 10 0 31 -12 48 -26z"/>
<path d="M2880 2195 c0 -25 5 -45 10 -45 6 0 10 20 10 45 0 25 -4 45 -10 45
-5 0 -10 -20 -10 -45z"/>
<path d="M2947 2213 c-11 -10 -8 -51 3 -58 6 -4 10 8 10 29 0 37 -2 41 -13 29z"/>
<path d="M3021 2180 c1 -42 1 -43 9 -16 6 17 5 36 0 45 -7 11 -9 3 -9 -29z"/>
<path d="M3070 2180 c0 -22 5 -40 10 -40 6 0 10 18 10 40 0 22 -4 40 -10 40
-5 0 -10 -18 -10 -40z"/>
<path d="M3110 2186 c0 -19 5 -38 10 -41 6 -4 10 8 10 29 0 19 -4 38 -10 41
-6 4 -10 -8 -10 -29z"/>
<path d="M3200 2175 c0 -28 4 -44 10 -40 6 3 10 21 10 40 0 19 -4 37 -10 40
-6 4 -10 -12 -10 -40z"/>
<path d="M3280 2181 c0 -23 5 -41 10 -41 6 0 10 15 10 34 0 19 -4 38 -10 41
-6 4 -10 -10 -10 -34z"/>
<path d="M3450 2213 c0 -10 49 -51 54 -45 12 11 5 21 -24 36 -16 8 -30 12 -30
9z"/>
<path d="M3357 2203 c-10 -9 -9 -53 1 -53 5 0 9 14 10 30 1 32 -1 34 -11 23z"/>
<path d="M3410 2180 c0 -18 4 -29 10 -25 6 3 10 15 10 25 0 10 -4 22 -10 25
-6 4 -10 -7 -10 -25z"/>
<path d="M2965 1951 c-9 -29 -32 -32 -100 -16 -65 15 -96 5 -62 -20 27 -20
477 -42 477 -24 0 5 -31 9 -69 9 -77 0 -118 12 -141 40 -8 10 -34 21 -57 25
-36 6 -42 4 -48 -14z"/>
<path d="M7847 2113 c-4 -3 -7 -11 -7 -17 0 -6 5 -5 12 2 6 6 9 14 7 17 -3 3
-9 2 -12 -2z"/>
<path d="M8070 2011 c0 -20 5 -31 14 -31 9 0 12 8 8 25 -7 37 -22 41 -22 6z"/>
<path d="M8130 2005 c0 -13 5 -27 10 -30 6 -4 10 5 10 20 0 17 5 25 13 22 6
-2 11 -10 10 -18 -2 -8 7 -15 21 -15 19 -1 23 3 22 20 -1 19 -8 22 -43 24 -39
1 -43 -1 -43 -23z"/>
<path d="M8160 1880 c0 -38 4 -50 15 -50 11 0 15 12 15 50 0 38 -4 50 -15 50
-11 0 -15 -12 -15 -50z"/>
<path d="M8026 1784 c-8 -20 1 -34 20 -34 8 0 14 10 14 25 0 28 -24 34 -34 9z"/>
<path d="M8077 1793 c-10 -9 -8 -43 2 -43 5 0 11 11 13 25 5 24 -2 32 -15 18z"/>
<path d="M8125 1788 c-4 -10 -4 -26 0 -35 8 -17 8 -17 12 0 3 9 3 25 0 35 -4
16 -4 16 -12 0z"/>
<path d="M8170 1765 c0 -18 4 -23 15 -19 8 4 15 15 15 25 0 10 -7 19 -15 19
-9 0 -15 -9 -15 -25z"/>
<path d="M7848 1743 c7 -3 16 -2 19 1 4 3 -2 6 -13 5 -11 0 -14 -3 -6 -6z"/>
<path d="M8130 1710 c0 -5 5 -10 10 -10 6 0 10 5 10 10 0 6 -4 10 -10 10 -5 0
-10 -4 -10 -10z"/>
<path d="M7919 1570 c-3 -12 3 -56 9 -64 3 -5 9 -1 13 10 7 17 8 17 8 2 1 -21
51 -26 52 -5 0 6 4 3 9 -8 7 -18 8 -19 15 -2 4 9 11 17 15 17 5 0 11 -8 13
-17 4 -14 5 -12 6 5 0 12 -3 22 -9 22 -5 0 -10 7 -10 15 0 8 -10 17 -22 19
-40 9 -98 12 -99 6z m111 -24 c0 -3 -4 -8 -10 -11 -5 -3 -10 -1 -10 4 0 6 5
11 10 11 6 0 10 -2 10 -4z"/>
<path d="M8055 1550 c4 -6 11 -8 16 -5 14 9 11 15 -7 15 -8 0 -12 -5 -9 -10z"/>
<path d="M8105 1550 c-3 -5 -1 -10 4 -10 6 0 11 5 11 10 0 6 -2 10 -4 10 -3 0
-8 -4 -11 -10z"/>
<path d="M8135 1551 c-3 -5 -1 -12 5 -16 5 -3 10 1 10 9 0 18 -6 21 -15 7z"/>
<path d="M8090 1500 c0 -5 5 -10 11 -10 5 0 7 5 4 10 -3 6 -8 10 -11 10 -2 0
-4 -4 -4 -10z"/>
<path d="M7978 1483 c-11 -3 -18 -14 -18 -26 0 -20 5 -22 75 -25 57 -1 75 1
75 11 0 9 -15 14 -46 16 -26 0 -52 7 -58 14 -6 8 -19 12 -28 10z"/>
<path d="M7995 1411 c-3 -5 -2 -12 3 -15 5 -3 9 1 9 9 0 17 -3 19 -12 6z"/>
<path d="M5790 2430 c0 -5 9 -14 20 -20 17 -9 20 -21 20 -85 0 -65 -2 -74 -20
-80 -12 -4 -36 -21 -54 -38 -18 -18 -41 -37 -52 -44 -19 -12 -19 -12 2 -30 12
-10 25 -29 29 -43 19 -63 69 -100 134 -100 38 0 85 39 104 89 9 21 23 41 31
44 20 8 21 37 1 37 -8 0 -27 14 -42 31 -16 17 -40 37 -55 45 -34 18 -39 59 -8
67 28 7 25 26 -6 37 -18 7 -25 17 -24 33 5 62 2 67 -40 67 -22 0 -40 -4 -40
-10z m108 -246 c35 -24 44 -59 28 -98 -39 -94 -172 -39 -145 59 15 54 70 72
117 39z"/>
<path d="M5570 1960 c0 -5 -5 -9 -12 -7 -6 1 -13 -6 -16 -15 -2 -12 3 -16 17
-15 15 1 21 8 21 24 0 13 -2 23 -5 23 -3 0 -5 -4 -5 -10z"/>
<path d="M5592 1940 c0 -19 2 -27 5 -17 2 9 2 25 0 35 -3 9 -5 1 -5 -18z"/>
<path d="M5670 1936 c0 -14 4 -27 8 -30 5 -3 6 8 4 25 -5 35 -12 38 -12 5z"/>
<path d="M5702 1935 c0 -16 2 -22 5 -12 2 9 2 23 0 30 -3 6 -5 -1 -5 -18z"/>
<path d="M5730 1928 c0 -36 10 -32 14 6 2 14 -1 26 -5 26 -5 0 -9 -14 -9 -32z"/>
<path d="M6203 1928 c0 -30 1 -30 10 -10 7 15 7 26 0 33 -6 6 -10 -1 -10 -23z"/>
<path d="M5772 1925 c0 -16 2 -22 5 -12 2 9 2 23 0 30 -3 6 -5 -1 -5 -18z"/>
<path d="M5842 1925 c0 -16 2 -22 5 -12 2 9 2 23 0 30 -3 6 -5 -1 -5 -18z"/>
<path d="M5878 1923 c5 -21 7 -23 10 -9 2 10 0 22 -6 28 -6 6 -7 0 -4 -19z"/>
<path d="M5948 1923 c5 -21 7 -23 10 -9 2 10 0 22 -6 28 -6 6 -7 0 -4 -19z"/>
<path d="M6021 1933 c-1 -12 4 -25 9 -28 12 -7 12 2 0 30 -8 19 -9 19 -9 -2z"/>
<path d="M6062 1925 c0 -16 2 -22 5 -12 2 9 2 23 0 30 -3 6 -5 -1 -5 -18z"/>
<path d="M6101 1933 c-1 -12 4 -25 9 -28 12 -7 12 2 0 30 -8 19 -9 19 -9 -2z"/>
<path d="M5621 1924 c0 -11 3 -14 6 -6 3 7 2 16 -1 19 -3 4 -6 -2 -5 -13z"/>
<path d="M5901 1929 c-1 -9 7 -23 17 -30 15 -12 16 -12 6 1 -6 8 -14 22 -17
30 -5 13 -6 12 -6 -1z"/>
<path d="M5980 1932 c0 -5 7 -15 15 -22 8 -7 15 -8 15 -2 0 5 -7 15 -15 22 -8
7 -15 8 -15 2z"/>
<path d="M6160 1925 c0 -8 4 -15 10 -15 5 0 7 7 4 15 -4 8 -8 15 -10 15 -2 0
-4 -7 -4 -15z"/>
<path d="M5480 1825 c0 -52 1 -55 25 -55 21 0 25 5 25 28 0 19 -3 23 -9 13 -5
-7 -14 -10 -21 -6 -9 6 -9 9 1 15 10 7 10 11 0 24 -11 13 -11 16 2 16 8 0 24
-19 35 -42 12 -24 21 -35 22 -25 0 26 -26 73 -45 81 -31 12 -35 6 -35 -49z"/>
<path d="M5560 1851 c8 -6 18 -7 22 -5 4 3 8 -15 8 -40 0 -25 4 -46 9 -46 5 0
6 21 3 46 -3 34 -2 45 7 40 6 -4 11 -2 11 3 0 6 -17 11 -37 11 -27 0 -34 -3
-23 -9z"/>
<path d="M6316 1853 c-12 -12 -5 -24 20 -33 18 -7 24 -15 20 -26 -3 -8 -2 -12
4 -9 6 3 10 10 10 14 0 13 -47 60 -54 54z"/>
<path d="M5639 1803 c3 -27 6 -40 9 -30 5 23 17 21 31 -5 11 -22 11 -22 7 -2
-2 12 0 28 5 35 12 19 -9 49 -34 49 -20 0 -22 -4 -18 -47z m36 17 c0 -7 -6
-15 -12 -17 -8 -3 -13 4 -13 17 0 13 5 20 13 18 6 -3 12 -11 12 -18z"/>
<path d="M5710 1800 c0 -49 1 -50 29 -50 17 0 33 5 36 10 4 7 -2 9 -19 4 -25
-6 -26 -4 -26 36 0 33 3 41 15 36 8 -3 15 -1 15 4 0 6 -11 10 -25 10 -23 0
-25 -3 -25 -50z"/>
<path d="M5830 1840 c0 -5 5 -10 11 -10 5 0 7 5 4 10 -3 6 -8 10 -11 10 -2 0
-4 -4 -4 -10z"/>
<path d="M6069 1846 c-7 -7 2 -96 10 -96 4 0 5 21 4 47 -3 46 -6 57 -14 49z"/>
<path d="M6150 1805 c0 -25 5 -45 10 -45 6 0 10 20 10 45 0 25 -4 45 -10 45
-5 0 -10 -20 -10 -45z"/>
<path d="M6227 1843 c-10 -9 -9 -61 1 -67 4 -2 7 13 7 35 0 21 0 39 -1 39 0 0
-4 -3 -7 -7z"/>
<path d="M6275 1810 c0 -45 11 -53 21 -14 4 16 2 31 -7 39 -12 12 -14 8 -14
-25z"/>
<path d="M5792 1828 c-7 -7 -12 -20 -12 -30 0 -25 36 -59 55 -52 23 9 18 21
-7 20 -27 -1 -37 36 -18 60 15 17 -1 19 -18 2z"/>
<path d="M5870 1795 c0 -25 5 -45 10 -45 6 0 9 20 8 45 0 25 -5 45 -10 45 -4
0 -8 -20 -8 -45z"/>
<path d="M5930 1795 c0 -25 5 -45 10 -45 6 0 9 20 8 45 0 25 -5 45 -10 45 -4
0 -8 -20 -8 -45z"/>
<path d="M5970 1811 c0 -16 3 -36 6 -45 12 -30 19 -16 16 29 -4 50 -22 62 -22
16z"/>
<path d="M6310 1780 c0 -5 5 -10 11 -10 5 0 7 5 4 10 -3 6 -8 10 -11 10 -2 0
-4 -4 -4 -10z"/>
<path d="M5731 1689 c-1 -16 4 -26 14 -26 9 0 11 4 6 11 -4 6 -11 18 -14 26
-3 9 -6 5 -6 -11z"/>
<path d="M5784 1689 c-3 -6 -2 -15 3 -20 5 -5 9 -1 9 11 0 23 -2 24 -12 9z"/>
<path d="M5862 1680 c0 -14 2 -19 5 -12 2 6 2 18 0 25 -3 6 -5 1 -5 -13z"/>
<path d="M5922 1675 c0 -16 2 -22 5 -12 2 9 2 23 0 30 -3 6 -5 -1 -5 -18z"/>
<path d="M5982 1680 c0 -14 2 -19 5 -12 2 6 2 18 0 25 -3 6 -5 1 -5 -13z"/>
<path d="M5821 1674 c0 -11 3 -14 6 -6 3 7 2 16 -1 19 -3 4 -6 -2 -5 -13z"/>
<path d="M5821 1556 c-5 -6 -12 -21 -15 -33 -8 -26 -16 -27 -105 -12 -66 10
-102 6 -85 -11 5 -5 58 -11 117 -13 84 -3 110 -1 114 9 3 7 13 16 23 19 13 4
17 12 13 23 -6 14 -5 15 9 2 14 -13 14 -16 -1 -27 -14 -11 -14 -12 6 -13 24 0
41 36 25 52 -14 14 -91 17 -101 4z"/>
<path d="M5930 1510 c0 -13 11 -13 30 0 12 8 11 10 -7 10 -13 0 -23 -4 -23
-10z"/>
<path d="M6011 1496 c11 -10 139 -16 139 -6 0 6 -29 10 -72 10 -39 0 -69 -2
-67 -4z"/>
<path d="M11065 1120 c3 -5 10 -10 16 -10 5 0 9 5 9 10 0 6 -7 10 -16 10 -8 0
-12 -4 -9 -10z"/>
<path d="M11258 1053 c7 -3 16 -2 19 1 4 3 -2 6 -13 5 -11 0 -14 -3 -6 -6z"/>
<path d="M11510 905 c0 -8 2 -15 4 -15 2 0 6 7 10 15 3 8 1 15 -4 15 -6 0 -10
-7 -10 -15z"/>
<path d="M11076 875 c-3 -8 -1 -15 4 -15 6 0 10 7 10 15 0 8 -2 15 -4 15 -2 0
-6 -7 -10 -15z"/>
<path d="M11346 882 c-3 -6 1 -13 10 -16 23 -9 28 -2 10 13 -8 7 -17 8 -20 3z"/>
<path d="M11120 870 c0 -5 7 -10 16 -10 8 0 12 5 9 10 -3 6 -10 10 -16 10 -5
0 -9 -4 -9 -10z"/>
<path d="M11040 800 c0 -5 5 -10 10 -10 6 0 10 5 10 10 0 6 -4 10 -10 10 -5 0
-10 -4 -10 -10z"/>
<path d="M10995 780 c-3 -5 1 -10 9 -10 9 0 16 5 16 10 0 6 -4 10 -9 10 -6 0
-13 -4 -16 -10z"/>
<path d="M10660 731 c0 -37 69 -36 70 1 0 13 -24 22 -28 10 -2 -7 -8 -12 -13
-12 -6 0 -7 5 -4 10 3 6 -1 10 -9 10 -9 0 -16 -8 -16 -19z"/>
<path d="M10775 730 c-7 -12 18 -24 37 -18 8 3 5 9 -9 16 -14 8 -24 9 -28 2z"/>
<path d="M10950 711 c31 -18 63 -24 58 -11 -2 7 -19 14 -38 16 -23 2 -30 1
-20 -5z"/>
<path d="M11042 695 c-13 -16 -11 -16 46 -19 9 -1 20 -5 24 -11 5 -7 8 -7 8 0
0 33 -56 55 -78 30z"/>
<path d="M10686 645 c10 -8 24 -14 29 -14 6 0 1 6 -9 14 -11 8 -24 15 -30 15
-5 0 -1 -7 10 -15z"/>
<path d="M10953 606 c0 -7 9 -12 21 -11 31 4 32 4 16 15 -21 14 -37 12 -37 -4z"/>
<path d="M1185 1090 c-3 -5 -1 -10 4 -10 6 0 11 5 11 10 0 6 -2 10 -4 10 -3 0
-8 -4 -11 -10z"/>
<path d="M1597 1079 c7 -7 15 -10 18 -7 3 3 -2 9 -12 12 -14 6 -15 5 -6 -5z"/>
<path d="M1215 1040 c3 -5 15 -10 26 -10 10 0 19 5 19 10 0 6 -12 10 -26 10
-14 0 -23 -4 -19 -10z"/>
<path d="M895 980 c-3 -5 -1 -10 4 -10 6 0 11 5 11 10 0 6 -2 10 -4 10 -3 0
-8 -4 -11 -10z"/>
<path d="M1090 935 c-10 -12 -9 -15 8 -15 27 0 52 10 52 21 0 15 -47 10 -60
-6z"/>
<path d="M904 915 c-4 -8 -10 -12 -15 -9 -5 3 -9 0 -9 -6 0 -6 -4 -8 -10 -5
-11 7 -14 -8 -3 -18 3 -4 17 5 30 19 12 14 26 23 31 21 4 -3 16 -1 27 4 16 6
14 8 -13 8 -20 1 -35 -5 -38 -14z"/>
<path d="M1066 883 c-4 -4 -37 -7 -74 -6 l-67 2 45 -15 c48 -16 102 -14 170 6
8 2 -34 19 -51 19 -9 1 -19 -2 -23 -6z"/>
<path d="M3290 1219 c0 -5 5 -7 10 -4 6 3 10 8 10 11 0 2 -4 4 -10 4 -5 0 -10
-5 -10 -11z"/>
<path d="M3340 1220 c0 -12 8 -12 35 0 18 8 17 9 -7 9 -16 1 -28 -3 -28 -9z"/>
<path d="M4790 491 c0 -24 3 -28 20 -24 11 3 20 10 20 17 0 6 -9 17 -20 24
-18 11 -20 10 -20 -17z"/>
<path d="M10602 445 c-11 -13 -9 -15 13 -13 14 1 25 8 25 15 0 17 -22 16 -38
-2z"/>
<path d="M10688 431 c7 -4 12 -14 10 -22 -2 -10 9 -15 40 -17 29 -2 42 0 37 7
-3 6 -13 11 -21 11 -8 0 -14 7 -14 15 0 10 -10 15 -32 15 -21 0 -28 -3 -20 -9z"/>
<path d="M10410 391 c0 -15 28 -21 63 -14 31 7 31 7 7 14 -36 10 -70 10 -70 0z"/>
<path d="M10583 372 c-18 -9 -33 -21 -33 -25 0 -4 9 -3 20 3 25 13 85 9 85 -5
0 -5 -12 -11 -27 -13 -16 -2 -28 -7 -28 -12 0 -5 15 -7 33 -4 34 6 70 39 64
58 -6 18 -79 17 -114 -2z"/>
<path d="M10486 341 c-15 -6 -16 -10 -7 -16 7 -4 16 -3 20 2 3 6 13 13 21 16
13 5 13 5 0 6 -8 0 -24 -4 -34 -8z"/>
<path d="M10482 313 c-18 -3 -32 -9 -30 -15 5 -15 58 -22 58 -8 0 5 11 10 25
10 14 0 25 5 25 10 0 10 -15 10 -78 3z"/>
<path d="M8150 6270 c8 -5 40 -10 70 -10 30 0 62 5 70 10 10 7 -11 10 -70 10
-59 0 -80 -3 -70 -10z"/>
<path d="M8488 6273 c6 -2 12 -11 12 -19 0 -8 9 -14 19 -14 10 0 21 -7 25 -15
3 -8 13 -15 23 -15 10 0 29 -7 43 -15 14 -8 40 -21 58 -30 25 -12 32 -21 32
-44 0 -21 9 -37 31 -54 20 -16 33 -38 40 -67 12 -53 60 -116 103 -134 41 -17
100 -29 156 -32 76 -3 161 -22 173 -37 7 -9 35 -28 62 -44 40 -23 61 -28 105
-27 58 1 156 33 175 56 16 20 55 40 55 28 0 -17 53 -11 74 9 44 39 143 47 190
15 11 -7 32 -10 54 -7 28 5 34 3 30 -8 -3 -8 -2 -23 2 -34 6 -18 9 -17 24 13
17 33 33 38 94 26 38 -8 45 -37 26 -108 -8 -28 -14 -81 -14 -117 0 -71 -7 -84
-68 -120 -20 -12 -32 -26 -30 -36 3 -15 53 -38 102 -47 95 -18 119 -55 164
-246 5 -20 14 -35 23 -35 8 0 18 -10 24 -22 11 -27 35 -39 35 -18 0 8 7 15 15
15 8 0 15 -4 15 -10 0 -5 5 -10 11 -10 5 0 7 5 4 10 -3 6 3 10 15 10 14 0 25
-10 35 -33 8 -19 21 -39 29 -47 9 -7 16 -20 16 -30 0 -13 6 -16 24 -13 13 3
27 0 30 -6 14 -22 44 -10 70 27 14 21 26 45 26 53 0 8 5 20 12 27 18 18 20 68
3 82 -16 13 -21 35 -6 26 15 -9 20 36 11 84 -5 25 -9 48 -10 53 0 4 -11 7 -25
7 -16 0 -33 12 -52 36 -15 20 -35 45 -44 57 -16 21 -17 21 -34 -13 -15 -30
-16 -40 -5 -87 12 -49 12 -55 -6 -69 -14 -10 -33 -13 -69 -10 -40 4 -55 11
-75 35 -30 35 -50 119 -50 205 0 51 4 64 35 106 29 40 43 50 76 55 33 6 47 3
70 -14 16 -12 34 -19 40 -15 12 7 2 199 -11 224 -5 8 -24 24 -43 35 -77 45
-115 80 -127 118 -6 21 -17 40 -25 43 -8 3 -11 12 -8 20 3 8 1 14 -4 14 -14 0
-36 -42 -42 -80 -8 -43 -27 -48 -89 -25 -54 21 -103 66 -130 120 -18 37 -19
44 -6 74 14 33 15 34 65 28 40 -5 57 -13 86 -42 19 -19 41 -35 49 -35 7 0 18
-8 23 -17 11 -19 13 -16 16 32 2 36 25 102 39 114 12 10 16 7 22 -11 l8 -23 7
25 7 25 7 -22 c4 -13 15 -23 26 -23 10 0 20 -3 23 -8 2 -4 24 -6 49 -4 47 4
57 15 57 70 l0 22 -1007 -1 c-555 0 -1002 -3 -995 -6z m1702 -62 c16 -31 13
-51 -7 -44 -28 10 -43 36 -31 50 15 18 26 16 38 -6z"/>
<path d="M10410 6170 c0 -5 17 -10 38 -10 27 0 33 3 22 10 -20 13 -60 13 -60
0z"/>
<path d="M8332 5769 c-23 -11 -40 -24 -36 -30 4 -7 10 -6 19 1 10 8 15 7 22
-4 4 -8 24 -32 43 -53 59 -64 80 -95 80 -118 0 -31 39 -60 80 -60 l35 0 14 92
c12 79 12 99 1 135 -8 24 -19 46 -25 50 -5 4 -50 8 -100 7 -69 0 -100 -4 -133
-20z"/>
<path d="M9775 5510 c-16 -11 -40 -20 -52 -20 -12 0 -24 -4 -27 -8 -3 -5 -37
-10 -75 -11 -78 -2 -102 -8 -179 -41 -56 -24 -92 -70 -74 -93 5 -7 15 -30 22
-52 7 -22 17 -45 22 -52 6 -8 4 -20 -7 -36 -15 -23 -39 -37 -93 -52 -35 -10
-46 -42 -43 -132 2 -65 -2 -90 -18 -120 -10 -22 -22 -55 -26 -76 -6 -32 -3
-40 22 -66 22 -21 43 -31 79 -35 27 -4 71 -11 97 -16 90 -18 91 -18 109 59 29
122 86 157 155 94 7 -6 13 -16 13 -21 0 -6 6 -12 14 -15 14 -5 38 -43 52 -78
8 -22 38 -35 115 -50 35 -6 65 -13 67 -15 2 -1 -2 -12 -8 -25 -11 -20 -10 -21
6 -14 11 4 38 13 61 19 25 6 42 16 42 26 4 56 0 67 -38 100 -32 29 -40 44 -46
84 -4 27 -14 61 -23 75 -10 14 -27 66 -39 116 -33 141 -41 167 -51 177 -6 6
-5 26 4 55 8 26 14 70 14 99 0 29 5 65 10 80 22 56 -45 84 -105 44z"/>
<path d="M7888 5388 c-4 -12 11 -63 25 -85 4 -6 4 -19 0 -30 -6 -16 -5 -16 10
-4 20 16 22 51 5 98 -12 33 -33 44 -40 21z"/>
<path d="M10701 5151 c-11 -7 -10 -13 4 -35 20 -30 81 -52 119 -42 29 7 32 22
14 61 -10 22 -17 25 -67 25 -31 0 -62 -4 -70 -9z"/>
<path d="M10904 4897 c-46 -13 -92 -42 -83 -51 5 -5 128 9 167 20 6 2 12 13
12 24 0 23 -29 25 -96 7z"/>
<path d="M6868 4554 c-13 -4 -18 -16 -18 -45 0 -32 10 -48 23 -36 8 7 86 -67
91 -87 5 -19 14 -25 44 -28 l38 -3 -7 50 c-9 65 -32 121 -57 134 -24 13 -91
21 -114 15z"/>
<path d="M10934 4236 c-3 -8 -4 -22 -2 -31 2 -12 8 -8 21 14 16 27 16 31 2 31
-8 0 -18 -6 -21 -14z"/>
<path d="M3501 766 c-24 -13 -24 -14 -3 -25 27 -15 32 -14 32 4 0 8 7 15 16
15 8 0 12 5 9 10 -8 13 -25 12 -54 -4z"/>
<path d="M3811 718 c0 -9 -4 -25 -7 -35 -5 -17 -5 -17 6 0 6 10 9 25 7 35 -4
15 -5 15 -6 0z"/>
<path d="M3320 711 c0 -5 5 -13 10 -16 6 -3 10 -2 10 4 0 5 -4 13 -10 16 -5 3
-10 2 -10 -4z"/>
<path d="M3546 712 c-3 -6 -1 -14 5 -17 15 -10 25 3 12 16 -7 7 -13 7 -17 1z"/>
<path d="M2230 701 c0 -5 5 -13 10 -16 6 -3 10 -2 10 4 0 5 -4 13 -10 16 -5 3
-10 2 -10 -4z"/>
<path d="M7058 703 c7 -3 16 -2 19 1 4 3 -2 6 -13 5 -11 0 -14 -3 -6 -6z"/>
<path d="M2284 694 c-18 -8 -4 -44 17 -44 11 0 19 -7 19 -16 0 -8 4 -12 10 -9
6 4 5 17 -3 37 -13 32 -23 40 -43 32z"/>
<path d="M3180 690 c0 -5 -9 -19 -20 -30 -18 -18 -19 -22 -6 -36 13 -13 16
-12 26 7 8 13 18 19 30 16 23 -6 47 17 30 28 -6 4 -17 2 -24 -4 -16 -13 -27
-4 -19 15 3 8 0 14 -6 14 -6 0 -11 -4 -11 -10z"/>
<path d="M2415 681 c-6 -11 9 -23 19 -14 9 9 7 23 -3 23 -6 0 -12 -4 -16 -9z"/>
<path d="M3516 667 c3 -10 9 -15 12 -12 3 3 0 11 -7 18 -10 9 -11 8 -5 -6z"/>
<path d="M3558 623 c4 -87 5 -89 25 -89 17 0 19 6 14 59 -5 52 -19 87 -36 87
-3 0 -5 -26 -3 -57z"/>
<path d="M2643 646 c-24 -12 -49 -34 -57 -51 -9 -16 -16 -25 -16 -20 -2 15
-18 -27 -19 -48 -1 -28 27 -32 49 -7 14 16 17 27 10 35 -7 8 -4 17 10 30 17
15 22 16 36 4 9 -7 20 -23 25 -36 5 -13 15 -23 23 -23 21 0 29 35 15 62 -7 12
-12 33 -13 47 -1 31 -12 33 -63 7z"/>
<path d="M4162 641 c2 -7 7 -12 11 -12 12 1 9 15 -3 20 -7 2 -11 -2 -8 -8z"/>
<path d="M3459 603 c-13 -16 -12 -17 4 -4 9 7 17 15 17 17 0 8 -8 3 -21 -13z"/>
<path d="M2359 587 c-16 -10 -16 -8 10 -121 9 -43 28 -43 40 1 16 58 14 84 -8
90 -11 3 -21 13 -23 23 -2 13 -7 15 -19 7z"/>
<path d="M3510 567 c0 -27 12 -47 27 -47 12 0 13 3 4 14 -6 8 -10 19 -9 26 2
7 -3 15 -9 17 -7 3 -13 -2 -13 -10z"/>
<path d="M10058 483 c-10 -2 -18 -9 -18 -14 0 -13 17 -11 26 2 4 8 9 7 15 -2
6 -11 11 -11 21 -1 17 17 29 15 22 -3 -4 -10 0 -15 11 -15 12 0 15 5 11 16 -3
9 -6 18 -6 20 0 5 -59 3 -82 -3z"/>
<path d="M6945 470 c3 -5 12 -10 20 -10 8 0 17 5 20 10 4 6 -5 10 -20 10 -15
0 -24 -4 -20 -10z"/>
<path d="M9646 424 c-4 -10 -1 -14 6 -12 15 5 23 28 10 28 -5 0 -13 -7 -16
-16z"/>
<path d="M9570 410 c0 -5 14 -10 31 -10 17 0 28 4 24 10 -3 6 -17 10 -31 10
-13 0 -24 -4 -24 -10z"/>
<path d="M7630 391 c0 -6 5 -13 10 -16 6 -3 10 1 10 9 0 9 -4 16 -10 16 -5 0
-10 -4 -10 -9z"/>
<path d="M3553 373 c3 -10 13 -38 22 -62 9 -25 14 -55 11 -67 -4 -14 -1 -24 9
-28 8 -3 20 -17 27 -31 6 -14 18 -25 25 -25 18 0 10 27 -23 89 -13 24 -24 48
-24 54 0 18 -35 86 -44 87 -4 0 -6 -8 -3 -17z"/>
<path d="M9940 380 c0 -5 5 -10 10 -10 6 0 10 5 10 10 0 6 -4 10 -10 10 -5 0
-10 -4 -10 -10z"/>
<path d="M10110 370 c-11 -7 -7 -10 18 -10 17 0 32 5 32 10 0 13 -30 13 -50 0z"/>
<path d="M3530 240 c0 -5 5 -10 10 -10 6 0 10 5 10 10 0 6 -4 10 -10 10 -5 0
-10 -4 -10 -10z"/>
<path d="M10033 226 c-13 -6 -23 -16 -23 -23 0 -7 -13 -19 -30 -28 -18 -9 -30
-23 -30 -35 0 -11 -1 -23 -2 -27 -5 -21 30 -10 44 14 9 15 31 43 49 61 34 35
29 55 -8 38z"/>
<path d="M9755 192 c-10 -10 -5 -21 14 -27 23 -7 51 3 51 19 0 11 -55 18 -65
8z"/>
<path d="M9850 180 c-13 -8 -12 -10 3 -10 9 0 17 5 17 10 0 12 -1 12 -20 0z"/>
<path d="M9812 143 c-13 -27 -9 -47 10 -51 13 -2 16 4 15 32 -1 39 -11 46 -25
19z"/>
<path d="M3765 110 c3 -5 10 -10 16 -10 5 0 9 5 9 10 0 6 -7 10 -16 10 -8 0
-12 -4 -9 -10z"/>
<path d="M3370 79 c0 -5 5 -7 10 -4 6 3 10 8 10 11 0 2 -4 4 -10 4 -5 0 -10
-5 -10 -11z"/>
<path d="M9917 77 c-11 -29 -9 -43 4 -30 6 6 9 19 7 29 -3 18 -4 18 -11 1z"/>
<path d="M10037 83 c-15 -14 -6 -33 16 -33 23 0 47 17 47 32 0 10 -54 11 -63
1z"/>
<path d="M3640 20 l-25 -20 48 0 c52 0 54 2 31 24 -20 20 -24 20 -54 -4z"/>
<path d="M3810 10 c-12 -8 -10 -10 8 -10 13 0 20 4 17 10 -7 12 -6 12 -25 0z"/>
</g>
</svg>
