<svg width="32" height="32" viewBox="0 0 32 32" fill="none" xmlns="http://www.w3.org/2000/svg">
<path d="M15.8562 0C1.15145 0 0 1.15145 0 15.8562V16.1438C0 30.8486 1.15145 32 15.8562 32H16.1438C30.8486 32 32 30.8486 32 16.1438V16C32 1.1616 30.8384 0 16 0H15.8562ZM12.8 3.2H19.2C28.1032 3.2 28.8 3.8968 28.8 12.8V19.2C28.8 28.1032 28.1032 28.8 19.2 28.8H12.8C3.8968 28.8 3.2 28.1032 3.2 19.2V12.8C3.2 3.8968 3.8968 3.2 12.8 3.2ZM23.9953 6.4C23.1113 6.4024 22.3976 7.12069 22.4 8.00469C22.4024 8.88869 23.1207 9.6024 24.0047 9.6C24.8887 9.5976 25.6024 8.87931 25.6 7.99531C25.5976 7.11131 24.8793 6.3976 23.9953 6.4ZM15.9812 8C11.5636 8.0104 7.9896 11.6012 8 16.0188C8.0104 20.4364 11.6012 24.0104 16.0188 24C20.4364 23.9896 24.0104 20.3988 24 15.9812C23.9896 11.5636 20.3988 7.9896 15.9812 8ZM15.9891 11.2C18.6395 11.1936 20.7936 13.3387 20.8 15.9891C20.8056 18.6395 18.6613 20.7936 16.0109 20.8C13.3605 20.8064 11.2064 18.6621 11.2 16.0109C11.1936 13.3605 13.3387 11.2064 15.9891 11.2Z" fill="white"/>
</svg>
