<svg width="60" height="60" viewBox="0 0 60 60" fill="none" xmlns="http://www.w3.org/2000/svg">
<mask id="mask0_695_157" style="mask-type:alpha" maskUnits="userSpaceOnUse" x="0" y="0" width="60" height="60">
<rect width="60" height="60" fill="#D9D9D9"/>
</mask>
<g mask="url(#mask0_695_157)">
<path d="M20 48.2537L30 40.4032L40 48.2537L36.25 35.5127L46.25 28.1769H34L30 14.7924L26 28.1769H13.75L23.75 35.5127L20 48.2537ZM30 58.5495C26.5417 58.5495 23.2917 57.8738 20.25 56.5225C17.2083 55.1712 14.5625 53.3372 12.3125 51.0207C10.0625 48.7041 8.28125 45.98 6.96875 42.8484C5.65625 39.7168 5 36.3706 5 32.81C5 29.2494 5.65625 25.9033 6.96875 22.7716C8.28125 19.64 10.0625 16.9159 12.3125 14.5993C14.5625 12.2828 17.2083 10.4488 20.25 9.09753C23.2917 7.7462 26.5417 7.07054 30 7.07054C33.4583 7.07054 36.7083 7.7462 39.75 9.09753C42.7917 10.4488 45.4375 12.2828 47.6875 14.5993C49.9375 16.9159 51.7188 19.64 53.0312 22.7716C54.3438 25.9033 55 29.2494 55 32.81C55 36.3706 54.3438 39.7168 53.0312 42.8484C51.7188 45.98 49.9375 48.7041 47.6875 51.0207C45.4375 53.3372 42.7917 55.1712 39.75 56.5225C36.7083 57.8738 33.4583 58.5495 30 58.5495ZM30 53.4016C35.5833 53.4016 40.3125 51.4068 44.1875 47.4172C48.0625 43.4275 50 38.5585 50 32.81C50 27.0615 48.0625 22.1925 44.1875 18.2029C40.3125 14.2132 35.5833 12.2184 30 12.2184C24.4167 12.2184 19.6875 14.2132 15.8125 18.2029C11.9375 22.1925 10 27.0615 10 32.81C10 38.5585 11.9375 43.4275 15.8125 47.4172C19.6875 51.4068 24.4167 53.4016 30 53.4016Z" fill="#BBC620"/>
</g>
</svg>
